<svg xmlns:svg="http://www.w3.org/2000/svg" xmlns="http://www.w3.org/2000/svg" version="1.0" width="320" height="320">
                        
  <g id="full-svg-transform" transform="translate(5 5) scale(2.5833333333333335) translate(-545 -198.24776458740234)">
    <g id="full-svg-wrapper">
      <defs onmouseup="sendClickToParentDocument(evt)" style="">
        <style onmouseup="sendClickToParentDocument(evt)" style=""></style>
      </defs>
      <g data-item-type="text" data-item="Business" id="logo__item--business" class="logo__item" onmouseup="sendClickToParentDocument(evt)" style="">
        <g class="logo__item__inner" transform="translate(681.8671875 280.79328909827336) scale(2.357535382694242 2.357535382694242) rotate(0 0 0)" onmouseup="sendClickToParentDocument(evt)" style="">
          <text data-part-id="logo__item--business" dy="0" dominant-baseline="auto" alignment-baseline="auto" font-family="Chewy--normal--normal" font-size="32px" fill="#A62E91" letter-spacing="2" font-weight="normal" font-style="normal" data-font-family="Chewy" data-font-weight="normal" data-font-style="normal" data-ttf-url="/builder_assets/fontsttf/font-montserrat-bold-normal.ttf" data-font-filename="chewy-normal-normal" onmouseup="sendClickToParentDocument(evt)" style=""></text>
        </g>
      </g>
      <g data-item-type="image" data-item="Image" data-logo-item="" id="logo__item--logo_0" class="logo__item" onmouseup="sendClickToParentDocument(evt)" style="">
        <g class="logo__item__inner" transform="translate(542.8673958848414 195.5) scale(0.8202323820700576 0.8202323820700576) rotate(0 0 0)" onmouseup="sendClickToParentDocument(evt)" style="">
          <g onmouseup="sendClickToParentDocument(evt)" style="">
            <g onmouseup="sendClickToParentDocument(evt)" style="">
              <path fill="#A62E91" d="M136.4,137.4c-4.8-3-25.2-21-47.6-20.1c-24.8,1.1-47.3,0.8-54.9-0.7c-9-1.8-17.7-9.1-21.5-18.2    c-0.1-0.1-0.1-0.3-0.2-0.4C3.4,73.1,2.6,50.5,10,33c0-0.1,0.1-0.2,0.2-0.3c5.1-10.3,16.8-14.2,20.3-15.2c0.1,0,0.2,0,0.2-0.1    c1.9-0.4,3.9-0.8,5.8-1.2c29.4-5.4,56.3-1.6,77.8,11c0.1,0.1,0.2,0.1,0.3,0.2c5.6,3.8,10.8,10.3,14.2,18c0.1,0.1,0.1,0.2,0.1,0.4    c5.2,13.8,10.2,30.2,8.1,47.2c0,0.2-0.1,0.5-0.1,0.7c-0.8,3.7-2.9,7.1-5.8,9.8l13.7,25.5c1.5,2.7,4.1,8.1,1.6,10.5    C143.7,142.2,141.3,140.5,136.4,137.4z M17.7,95.9c3,7.1,10.1,13,17,14.3c6.8,1.4,28.9,1.7,53.6,0.6c24.7-1.1,51.4,21.4,51.4,21.4    l-16.7-31.1c3.5-1.8,7.1-5,8-9.3c1.9-14.9-2.4-29.9-7.7-43.7c-2.5-5.8-6.8-11.8-11.8-15.1C87,18.5,58,18,32,23.9    c-6.1,1.7-13.6,5.8-16.7,12.1C7.4,54.7,11,76.9,17.7,95.9z" data-part-id="logo__item--logo_0__0" onmouseup="sendClickToParentDocument(evt)" style=""></path>
            </g>
            <path fill="#A62E91" d="M83,96.7c0,0,16.5,12.1,33.1-10.8c0,0-19.9-7.6-32.5,8.1c0,0,9.7-0.5,18.1-2.6   C101.6,91.5,93.7,95.9,83,96.7z" data-part-id="logo__item--logo_0__1" onmouseup="sendClickToParentDocument(evt)" style=""></path>
            <path fill="#A479B4" d="M87.2,39.5c0,0,14.7,39.1-13.4,52.7c0,0,4.7-9.2,6.6-30.9c0,0-6.3,17.1-9.2,25.7C71.2,87,62,55,87.2,39.5z" data-part-id="logo__item--logo_0__2" onmouseup="sendClickToParentDocument(evt)" style=""></path>
            <path fill="#EF639A" d="M63.1,96.7c0,0,15.2-38.3-40.7-55.3c0,0-4.2,40.1,36.5,55.9c0,0-10.2-21.2-17.3-33   C41.5,64.2,55.7,77.3,63.1,96.7z" data-part-id="logo__item--logo_0__3" onmouseup="sendClickToParentDocument(evt)" style=""></path>
          </g>
        </g>
      </g>
    </g>
    <rect id="highlight-rect" fill="none" stroke="none"></rect>
  </g>
</svg>