<?xml version="1.0" encoding="UTF-8" standalone="no"?>
<!-- Created with Inkscape (http://www.inkscape.org/) -->

<svg
   xmlns:dc="http://purl.org/dc/elements/1.1/"
   xmlns:cc="http://creativecommons.org/ns#"
   xmlns:rdf="http://www.w3.org/1999/02/22-rdf-syntax-ns#"
   xmlns:svg="http://www.w3.org/2000/svg"
   xmlns="http://www.w3.org/2000/svg"
   xmlns:sodipodi="http://sodipodi.sourceforge.net/DTD/sodipodi-0.dtd"
   xmlns:inkscape="http://www.inkscape.org/namespaces/inkscape"
   id="svg3371"
   version="1.1"
   inkscape:version="0.91 r13725"
   width="565"
   height="758.75"
   viewBox="0 0 565 758.75"
   sodipodi:docname="tany4.svg">
  <metadata
     id="metadata3377">
    <rdf:RDF>
      <cc:Work
         rdf:about="">
        <dc:format>image/svg+xml</dc:format>
        <dc:type
           rdf:resource="http://purl.org/dc/dcmitype/StillImage" />
        <dc:title></dc:title>
      </cc:Work>
    </rdf:RDF>
  </metadata>
  <defs
     id="defs3375" />
  <sodipodi:namedview
     pagecolor="#ffffff"
     bordercolor="#666666"
     borderopacity="1"
     objecttolerance="10"
     gridtolerance="10"
     guidetolerance="10"
     inkscape:pageopacity="0"
     inkscape:pageshadow="2"
     inkscape:window-width="1920"
     inkscape:window-height="1017"
     id="namedview3373"
     showgrid="false"
     inkscape:zoom="1.1123558"
     inkscape:cx="39.243746"
     inkscape:cy="415.33472"
     inkscape:window-x="0"
     inkscape:window-y="30"
     inkscape:window-maximized="1"
     inkscape:current-layer="svg3371" />
  <path
     style="fill:#44006b;fill-opacity:1;opacity:1"
     d="M 0.01914096,692.83677 C 0.03087245,652.40887 0.50733935,626.14919 1.25,625 c 0.6664449,-1.03125 1.2203315,-1.29764 1.230859,-0.59196 0.01105,0.74088 2.1289148,1.08182 5.0121782,0.80686 2.7461708,-0.26189 4.7117418,-0.93131 4.3679348,-1.4876 -0.343806,-0.55629 1.125483,-0.73554 3.265087,-0.39834 2.871056,0.45249 3.640661,0.20936 2.937701,-0.92805 -0.711496,-1.15122 0.03818,-1.34302 2.962985,-0.75806 2.153509,0.4307 6.600347,0.004 9.881864,-0.94789 3.281515,-0.95203 9.903891,-2.39479 14.716391,-3.20611 14.267484,-2.4053 18.815465,-3.78413 16.77725,-5.0864 -1.118716,-0.71477 0.439322,-0.84186 4.204826,-0.34297 5.159489,0.68357 6.405924,0.39437 9.064402,-2.10314 5.526676,-5.19205 7.078683,-16.4093 3.539403,-25.58134 -1.061161,-2.75 -2.60082,-7.70128 -3.421462,-11.00284 -0.820643,-3.30156 -1.926209,-5.56871 -2.456814,-5.0381 -0.530605,0.5306 -0.580699,-0.036 -0.111325,-1.25924 0.621667,-1.62003 0.130442,-2.41302 -1.808934,-2.92018 C 69.948058,563.77173 68.75,562.6691 68.75,561.70438 c 0,-1.95942 -5.48059,-11.08132 -7.353179,-12.23864 -0.662463,-0.40943 -1.560376,-2.3648 -1.995362,-4.34528 -0.434985,-1.98047 -2.549368,-6.3334 -4.698628,-9.67316 -2.149258,-3.33976 -5.238478,-8.69706 -6.864932,-11.90511 -1.626453,-3.20805 -4.336598,-6.73665 -6.022543,-7.84133 C 40.12941,514.59619 38.75,512.69284 38.75,511.47119 c 0,-1.22165 -0.469527,-2.75557 -1.043395,-3.40869 -1.58769,-1.80698 -4.884317,-11.3514 -7.606989,-22.02385 -1.345077,-5.27249 -3.622184,-11.89265 -5.060237,-14.71146 -2.212034,-4.33595 -2.628039,-7.47929 -2.701631,-20.41365 -0.106126,-18.6511 -1.000932,-29.86474 -2.318143,-29.05065 -1.367356,0.84506 -2.100584,-2.68335 -1.989058,-9.57169 0.05195,-3.20859 -0.155001,-5.58414 -0.459888,-5.27899 -0.968683,0.9695 -7.301898,-33.67188 -8.9712442,-49.07086 C 7.716012,349.79236 6.9687021,333.28125 6.9387262,321.25 c -0.046215,-18.5491 0.477493,-24.89959 3.4445158,-41.76824 1.924459,-10.94128 3.951595,-20.78503 4.504745,-21.875 0.553152,-1.08997 1.706014,-6.48176 2.561919,-11.98176 0.855904,-5.5 2.017539,-10.56769 2.58141,-11.26153 0.563872,-0.69383 2.023548,-6.88133 3.243725,-13.75 1.220178,-6.86866 2.951208,-13.23177 3.846731,-14.14026 1.894875,-1.92229 2.137423,-3.97321 0.469883,-3.97321 -0.63709,0 -1.437346,0.98437 -1.778349,2.1875 -1.030321,3.63517 0.689775,-13.20635 1.791354,-17.53921 0.655806,-2.5795 0.761562,-0.93249 0.294704,4.58958 -0.555788,6.57393 -0.369357,8.39113 0.787517,7.67614 0.908604,-0.56155 1.204719,-2.17575 0.7393,-4.03011 -0.427011,-1.70136 -0.331965,-2.82183 0.211216,-2.48994 0.543182,0.33189 1.092178,-1.36499 1.219991,-3.77081 0.127813,-2.40584 1.184719,-5.42656 2.34868,-6.71273 1.740534,-1.92327 1.896907,-3.20277 0.880706,-7.2063 -1.030912,-4.06146 -0.9246,-4.8439 0.641785,-4.72347 1.032553,0.0794 2.125537,-0.55916 2.428855,-1.419 0.346188,-0.98138 -0.161568,-1.28973 -1.363974,-0.82833 -1.544358,0.59263 -1.855395,-0.19427 -1.605431,-4.06165 0.246467,-3.81326 0.809966,-4.79857 2.74851,-4.80592 1.95249,-0.007 2.402093,-0.81706 2.255903,-4.0625 -0.100417,-2.22929 0.321458,-4.05325 0.9375,-4.05325 0.616043,0 1.120078,-1.16713 1.120078,-2.59361 0,-2.7948 9.460192,-18.16385 12.938772,-21.02036 1.16472,-0.95644 1.820559,-2.67511 1.45742,-3.81926 -0.599706,-1.88951 3.335857,-7.56677 5.245394,-7.56677 0.43681,0 -0.524821,1.40403 -2.136956,3.12007 -1.612135,1.71604 -2.610854,3.44037 -2.219375,3.83185 1.036363,1.03636 7.332304,-6.0883 6.741864,-7.62929 -0.274455,-0.7163 0.340343,-2.40379 1.36622,-3.75 1.781846,-2.33821 1.82345,-2.30837 0.930638,0.66757 -0.8411,2.80357 -0.726166,2.94222 1.148938,1.38602 1.145941,-0.95105 1.806781,-2.63414 1.468534,-3.7402 -0.338249,-1.10606 0.541614,-3.41727 1.955247,-5.13602 1.413635,-1.71875 2.153273,-2.33496 1.643639,-1.36936 -0.61117,1.15798 -0.435334,1.45201 0.51653,0.86373 0.793724,-0.49055 1.443135,-1.59496 1.443135,-2.45423 0,-0.85927 0.88967,-2.654201 1.977044,-3.988728 1.688092,-2.071783 1.876517,-2.106702 1.289231,-0.238912 -0.378298,1.203125 -0.142968,2.1875 0.522956,2.1875 0.665923,0 1.219383,-0.703125 1.22991,-1.5625 0.01414,-1.153996 0.299096,-1.120712 1.089952,0.127306 0.839007,1.324009 1.511343,1.060857 3.105858,-1.215632 C 84.084227,95.751182 85,93.812325 85,93.040601 85,92.268879 86.125,90.619358 87.5,89.375 88.875,88.130642 90,86.389159 90,85.505036 c 0,-0.884121 0.649411,-2.008851 1.443135,-2.499401 0.888964,-0.549409 1.104038,-0.343233 0.560079,0.536911 -0.559675,0.905573 -0.213954,1.172059 0.944055,0.727689 1.004911,-0.385621 2.160434,-2.029188 2.567826,-3.65237 0.407394,-1.623181 1.864407,-3.307886 3.23781,-3.743788 1.373405,-0.4359 2.497095,-1.334649 2.497095,-1.997221 0,-2.41157 15.43448,-15.99335 23.94116,-21.067348 8.53054,-5.088227 8.91896,-5.188807 17.08144,-4.423034 13.77974,1.292763 15.1715,1.291735 15.51904,-0.0115 0.18335,-0.6875 -2.19789,-2.068792 -5.29164,-3.069535 -3.60415,-1.165845 -4.81011,-1.990244 -3.35679,-2.294699 1.24751,-0.26134 5.30728,1.011709 9.02168,2.828999 3.71441,1.817289 8.88121,3.631275 11.48178,4.03108 2.60058,0.399805 5.60239,1.171922 6.67068,1.715817 1.0683,0.543895 2.74591,0.49227 3.72805,-0.114725 1.45137,-0.896997 1.08772,-1.87528 -1.94235,-5.22528 L 174.375,43.125 l 4.36301,3.75 c 2.39965,2.0625 4.5559,4.171875 4.79166,4.6875 1.03967,2.27381 6.23805,-1.195297 8.19483,-5.46875 0.43285,-0.945313 0.57732,-0.151816 0.32106,1.763325 -0.44531,3.328042 -0.36262,3.388591 1.86925,1.368766 1.28435,-1.162321 2.33519,-2.615488 2.33519,-3.229261 0,-0.613774 1.52697,-2.531101 3.39327,-4.260728 2.95173,-2.735568 3.48801,-2.874686 4.12137,-1.069126 0.66516,1.896248 0.87129,1.903116 2.38478,0.07946 C 207.24934,39.420866 207.33459,38.75 206.40305,38.75 205.63137,38.75 205,38.154302 205,37.426229 c 0,-0.728074 0.5625,-0.976128 1.25,-0.551229 0.6875,0.424899 1.25,0.176845 1.25,-0.551229 C 207.5,35.595697 208.37695,35 209.44877,35 c 1.07183,0 1.67378,-0.444944 1.33768,-0.988763 -0.3361,-0.543819 1.32595,-0.762623 3.69345,-0.486232 2.36749,0.276391 4.99991,-0.04776 5.84981,-0.72035 2.40049,-1.899655 17.19848,-6.68478 18.39183,-5.947244 0.58571,0.361991 1.2536,0.104675 1.4842,-0.571805 0.2306,-0.676482 3.7005,-1.425747 7.71091,-1.665031 4.0104,-0.239284 7.71162,-1.114604 8.22494,-1.945155 0.51331,-0.830553 1.87268,-1.149611 3.02085,-0.709021 1.17531,0.451011 2.08756,0.196392 2.08756,-0.582663 0,-0.761055 -0.98437,-1.39235 -2.1875,-1.402877 -1.86944,-0.01636 -1.91488,-0.195326 -0.3125,-1.230859 1.03125,-0.666445 1.3125,-1.25208 0.625,-1.301411 -0.6875,-0.04934 0.71875,-0.788503 3.125,-1.642601 2.40625,-0.854099 4.2536,-2.170912 4.10524,-2.926248 -0.14838,-0.755338 0.72557,-1.113052 1.94211,-0.79492 1.21654,0.318132 6.09089,-0.881633 10.8319,-2.6661431 4.74101,-1.7845103 9.49205,-2.8689976 10.55788,-2.4099719 1.06583,0.4590258 4.18787,1.0380818 6.93787,1.2867911 7.0029,0.633341 20.72616,4.2726319 23.94675,6.3504719 1.82459,1.177176 2.9611,1.312157 3.51411,0.417365 0.46618,-0.754288 2.26138,-0.970807 4.17825,-0.503937 3.82578,0.931802 15.23589,8.033641 15.23589,9.483073 0,0.526642 0.73146,0.957531 1.62548,0.957531 0.89401,0 4.75816,2.792109 8.58698,6.204686 3.82883,3.412578 7.31612,5.850078 7.74952,5.416666 0.43341,-0.43341 0.78802,0.09682 0.78802,1.17829 0,1.398427 0.77846,1.762736 2.69546,1.261429 1.84682,-0.482952 2.41393,-0.249331 1.80123,0.742024 -0.49183,0.795798 -0.29854,1.446905 0.42954,1.446905 0.72807,0 1.18315,0.653758 1.01127,1.452794 -0.17188,0.799037 1.82336,1.92075 4.43386,2.492696 4.38503,0.960736 14.4134,5.864201 18.05238,8.826871 0.8518,0.693499 1.24048,1.759672 0.86372,2.369273 -0.37675,0.609601 0.56694,1.108366 2.0971,1.108366 1.53016,0 2.41199,0.37012 1.95961,0.822489 -0.45236,0.452368 -0.1959,1.577484 0.56994,2.500256 1.66933,2.011406 -7.49597,-1.46873 -9.53911,-3.622079 -0.85946,-0.905827 -0.6642,-1.035906 0.625,-0.41635 1.03125,0.495593 0.75,0.04146 -0.625,-1.009169 -1.375,-1.050635 -3.35884,-2.746042 -4.40854,-3.767573 -1.0497,-1.021532 -3.44032,-2.439712 -5.3125,-3.151513 -2.81634,-1.070771 -3.40396,-0.952758 -3.40396,0.683614 0,1.225312 0.69814,1.709894 1.83496,1.273654 1.00924,-0.387279 2.22115,-0.0793 2.69314,0.684399 0.51659,0.835852 0.28945,1.037053 -0.57065,0.505486 -0.9403,-0.581138 -1.16055,-0.183959 -0.64418,1.161671 0.61439,1.601079 1.00337,1.690824 1.79272,0.413622 0.55445,-0.897108 1.40007,-1.239115 1.87917,-0.760015 0.4791,0.479102 0.11488,1.869062 -0.80925,3.0888 -1.43316,1.891485 -1.42237,1.987649 0.0734,0.653735 1.43488,-1.279665 2.46921,-0.870455 5.6898,2.25107 2.16487,2.098273 5.15931,3.90718 6.6543,4.019796 1.495,0.112612 2.48501,0.812377 2.20002,1.555027 -0.31714,0.826461 1.32438,1.328513 4.23146,1.294176 3.65077,-0.04311 4.4511,-0.417593 3.45933,-1.618596 -2.14591,-2.598637 0.85129,-1.817564 4.78475,1.24691 5.00923,3.902575 9.2292,7.462783 11.59759,9.784398 1.10467,1.082843 4.17104,3.270956 6.81414,4.862472 5.7375,3.454759 9.51357,7.099065 16.88287,16.29372 3.03058,3.78125 6.38859,7.57813 7.46223,8.4375 1.07363,0.85938 1.4738,1.5625 0.88923,1.5625 -0.58455,0 1.13607,2.20746 3.82359,4.90546 2.68754,2.698 6.01143,6.28825 7.38643,7.97834 1.375,1.69008 3.01746,2.76535 3.64992,2.38948 0.63246,-0.37586 0.78478,0.26816 0.33849,1.43116 -0.50245,1.30936 0.0889,2.88537 1.55281,4.13887 1.30034,1.11338 2.10679,2.69523 1.79213,3.51524 -0.31468,0.82 0.29722,2.21241 1.35976,3.09424 1.06254,0.88182 1.93188,2.65945 1.93188,3.95026 0,1.29083 0.49427,2.34695 1.09835,2.34695 0.60409,0 1.82174,1.82813 2.70587,4.0625 0.88413,2.23438 2.26683,4.90625 3.07267,5.9375 2.98417,3.81895 9.61773,27.21453 10.6327,37.5 1.51974,15.40032 2.6415,21.25 4.07505,21.25 0.78454,0 0.99839,2.58441 0.56295,6.8034 -0.44758,4.33673 -0.21531,6.96569 0.64068,7.25103 0.73856,0.24618 1.43052,1.63772 1.53768,3.09231 0.10713,1.45457 1.00579,3.64335 1.99695,4.86392 1.57988,1.94557 1.57089,2.10114 -0.0729,1.26159 -1.08446,-0.55389 -0.95271,-0.20167 0.3125,0.83536 1.20312,0.98615 2.1875,2.40616 2.1875,3.15558 0,0.74942 0.77391,1.81241 1.7198,2.3622 0.94589,0.54979 3.33651,2.94332 5.3125,5.31897 1.97599,2.37565 2.74895,3.81455 1.7177,3.19755 -1.61764,-0.96782 -1.63953,-0.83151 -0.15945,0.99314 0.94356,1.16323 1.22481,2.13284 0.625,2.1547 -0.5998,0.0219 -0.2468,0.73435 0.78445,1.5833 1.03125,0.84895 2.7705,3.22169 3.865,5.27275 1.0945,2.05106 2.64137,3.58857 3.4375,3.4167 0.79613,-0.17187 1.35206,0.10938 1.23541,0.625 -0.35387,1.56433 8.58972,19.00283 9.42978,18.38648 0.43027,-0.31569 0.49908,-0.197 0.15292,0.26373 -0.34616,0.46075 0.22769,2.14577 1.2752,3.74449 1.12372,1.715 1.63013,4.31839 1.23518,6.34978 -0.50109,2.57727 -0.40449,2.83526 0.38417,1.026 1.22008,-2.799 2.08431,-1.7445 3.33071,4.06398 0.48943,2.28083 1.7129,4.46279 2.71884,4.8488 1.00593,0.38602 1.55249,1.42234 1.21456,2.30294 -0.79392,2.06894 1.68674,10.62436 3.82003,13.17473 0.90789,1.08538 1.6507,2.94671 1.6507,4.13627 0,1.18956 0.42187,1.90211 0.9375,1.58344 0.51563,-0.31868 0.99125,0.6325 1.05694,2.11372 0.0657,1.48123 1.09898,6.06814 2.29621,10.19314 2.42393,8.35163 3.64246,17.09834 2.01523,14.4654 -1.289,-2.08564 -3.8082,-0.64606 -3.79891,2.17088 0.004,1.16255 0.68073,4.36372 1.5042,7.11372 l 1.49724,5 0.88029,-5 c 0.6156,-3.49661 0.77054,-2.18114 0.51529,4.375 -0.20075,5.15625 -0.92774,10.78125 -1.61554,12.5 -0.68871,1.72103 -0.77712,3.71581 -0.19681,4.44005 0.57956,0.72328 0.70742,2.63935 0.28415,4.25796 -0.42863,1.63905 -0.267,2.63385 0.36481,2.24533 0.62391,-0.38368 1.19289,1.91899 1.26436,5.11704 0.1651,7.3868 1.64971,20.2741 2.49268,21.63806 1.27477,2.06261 1.74397,6.97372 2.41864,25.31585 0.37708,10.2516 0.99235,19.13562 1.36727,19.74225 0.37493,0.60664 0.1357,1.78146 -0.5316,2.61071 -1.94802,2.42085 -3.14687,9.63275 -1.60127,9.63275 0.74213,0 1.34932,1.40625 1.34932,3.125 0,1.7987 -0.7202,3.125 -1.69692,3.125 -1.9963,0 -3.34479,10.66378 -2.68718,21.25 0.30075,4.84144 -0.68575,10.94214 -3.33511,20.625 -2.06921,7.5625 -4.42605,17.40625 -5.23741,21.875 -0.81137,4.46875 -2.0028,7.94335 -2.64763,7.72133 -1.51563,-0.52183 -4.5846,8.26441 -3.18816,9.12746 0.58174,0.35954 0.76366,1.77814 0.40427,3.15246 -0.36522,1.39663 -0.0377,2.49875 0.74235,2.49875 0.76769,0 1.39579,1.6875 1.39579,3.75 0,2.14546 0.66856,3.76701 1.5625,3.78975 0.95424,0.0242 0.71094,0.68619 -0.625,1.70031 -1.20312,0.9133 -2.1875,2.30167 -2.1875,3.08524 0,1.97525 -1.89751,1.78181 -3.68834,-0.376 -1.60776,-1.93724 -4.60361,-1.40146 -5.42177,0.96963 -0.27634,0.80083 -0.24822,-0.16118 0.0625,-2.13782 0.41912,-2.66623 0.15795,-3.34233 -1.01186,-2.61936 -1.04735,0.6473 -1.26473,0.46958 -0.64738,-0.52931 0.63504,-1.02751 1.40969,-1.10525 2.44567,-0.24545 3.30269,2.74099 9.62758,-1.66484 7.44943,-5.18915 -0.51502,-0.83333 -1.49129,-0.44281 -2.62569,1.0503 -1.6754,2.2052 -1.75206,2.10602 -1.06141,-1.37314 0.40943,-2.0625 0.14606,-4.59375 -0.58525,-5.625 -1.05599,-1.48907 -1.17194,-1.3122 -0.56336,0.85931 0.77601,2.76895 -1.53233,7.89069 -3.55628,7.89069 -0.60631,0 -0.40212,-0.84375 0.45374,-1.875 0.94629,-1.14021 1.04519,-1.875 0.25238,-1.875 -0.71705,0 -1.67297,-1.68105 -2.12423,-3.73566 -0.45127,-2.05463 -1.4353,-4.11565 -2.18675,-4.58006 -0.92487,-0.5716 -1.0386,-0.0715 -0.35204,1.54817 3.23055,7.62096 2.00719,10.80875 -4.27623,11.14286 -3.63047,0.19305 -5.01645,-1.2668 -5.04399,-5.31281 -0.0113,-1.65816 -0.7887,-2.8125 -1.89414,-2.8125 -2.36197,0 -2.37141,1.23501 -0.0349,4.57085 1.65515,2.36305 1.59232,2.91279 -0.625,5.46939 -1.3558,1.56326 -2.5069,4.02185 -2.55799,5.46352 -0.0511,1.44168 -0.32465,3.8596 -0.60791,5.37317 -0.37917,2.02593 0.46975,3.33363 3.21788,4.95701 2.72215,1.60801 3.73292,3.1475 3.73292,5.68557 0,2.09973 0.67383,3.48049 1.69853,3.48049 1.26708,0 1.57527,1.5631 1.21325,6.15351 -0.2696,3.41869 0.0866,6.50697 0.80147,6.94878 0.70771,0.43739 1.28675,-0.11963 1.28675,-1.23775 0,-1.49604 0.6929,-1.81309 2.6234,-1.20038 2.19491,0.69664 2.49507,0.42833 1.83775,-1.64273 -0.52619,-1.65785 -0.11125,-2.73415 1.25628,-3.25893 1.17418,-0.45057 1.7379,-1.57592 1.32649,-2.64804 -0.41589,-1.0838 -0.0113,-1.86446 0.96784,-1.86446 0.92582,0 2.45504,-1.07265 3.39827,-2.38367 2.29822,-3.19435 7.33997,-4.69159 7.33997,-2.17973 0,1.02029 0.70312,2.10101 1.5625,2.40161 1.18192,0.41342 1.08856,1.12383 -0.3833,2.91666 -2.81249,3.42583 -5.1511,9.21481 -5.75469,14.24513 l -0.52495,4.375 2.08135,-4.0625 c 1.14474,-2.23438 2.57359,-4.0625 3.17521,-4.0625 0.60164,0 1.09388,-0.5957 1.09388,-1.32377 0,-0.72808 -0.48124,-1.02634 -1.06943,-0.66283 -0.58819,0.36353 -0.80386,-0.72829 -0.47929,-2.42623 0.32459,-1.69795 1.40153,-3.08717 2.3932,-3.08717 0.99169,0 1.45939,-0.55606 1.03936,-1.23569 -0.43792,-0.70857 0.0639,-0.91812 1.17623,-0.49126 1.45429,0.55806 1.93993,-0.0899 1.93993,-2.58809 0,-1.93902 0.53121,-3.0042 1.27038,-2.54736 0.69871,0.43183 0.97814,1.25801 0.62095,1.83597 -0.92483,1.4964 0.66469,5.13934 1.90734,4.37134 0.57019,-0.3524 0.7189,-2.59916 0.33046,-4.99281 -0.50251,-3.09621 -0.23829,-4.3521 0.91556,-4.3521 0.89204,0 1.29507,-0.32682 0.89562,-0.72627 -0.39945,-0.39946 -1.83756,-0.13154 -3.1958,0.59537 -2.16828,1.16042 -2.53615,0.86781 -3.01558,-2.39873 -0.56492,-3.84915 1.05335,-5.1435 2.3162,-1.85254 0.39421,1.02729 1.1531,1.59813 1.68643,1.26852 0.53331,-0.32961 3.56812,2.30006 6.74401,5.84372 l 5.77435,6.44301 0,80.41346 0,80.41346 -81.25,0 c -46.5625,0 -81.25,-0.47436 -81.25,-1.11111 0,-0.61111 -0.91783,-1.03299 -2.03961,-0.9375 -1.14936,0.0979 -2.92257,-1.58608 -4.0625,-3.85794 -2.22844,-4.44121 -4.31044,-4.71165 -4.91185,-0.63802 -0.27015,1.82986 0.6844,3.21647 3.125,4.53955 3.30535,1.79183 2.56137,1.9079 -12.53211,1.95497 l -16.04609,0.05 -1.41546,-3.75 c -0.77852,-2.0625 -1.81929,-3.75 -2.31284,-3.75 -0.49355,0 -0.58949,-1.89724 -0.21319,-4.21609 0.40161,-2.4748 0.10913,-4.57149 -0.70817,-5.0766 -0.76579,-0.47329 -1.10344,-2.09167 -0.75033,-3.59642 0.35311,-1.50474 0.21455,-3.29839 -0.30791,-3.98589 -2.02659,-2.66674 -9.1937,-5.75578 -11.58988,-4.99526 -1.42058,0.45094 -2.48506,0.21726 -2.48506,-0.54545 0,-0.73384 -0.79688,-1.33424 -1.77084,-1.33424 -0.97395,0 -2.10232,-0.70313 -2.50747,-1.5625 -0.40515,-0.85938 -0.46918,-0.12663 -0.14227,1.62835 0.53943,2.89575 0.20122,3.20199 -3.65718,3.31135 -2.50723,0.0711 -4.51689,-0.57089 -4.89825,-1.56467 -0.41613,-1.08442 -9e-4,-1.4374 1.16467,-0.99013 1.15281,0.44237 1.81134,-0.0933 1.81134,-1.47342 0,-1.81538 -0.78289,-2.04332 -4.80765,-1.39973 -5.58401,0.89292 -7.32763,-0.12531 -4.23543,-2.4734 2.01164,-1.52755 2.01535,-1.64921 0.0515,-1.6861 -1.16413,-0.0219 -2.85163,0.99434 -3.75,2.25821 -0.89835,1.26388 -3.18025,2.68084 -5.07087,3.14882 C 315.19846,727.4985 313.5419,730 316.25,730 c 0.6875,0 1.25,-0.54485 1.25,-1.21078 0,-0.66591 0.84375,-0.88698 1.875,-0.49126 1.03125,0.39574 1.875,1.5138 1.875,2.48459 0,2.05121 -6.24717,1.01914 -7.79336,-1.28751 -0.52709,-0.78634 -0.92652,-0.17807 -0.9375,1.42772 -0.0147,2.15068 -0.6687,2.7289 -2.8276,2.5 -2.07323,-0.21981 -2.91408,0.43852 -3.21194,2.51474 -0.29519,2.05763 0.22375,2.8125 1.93346,2.8125 1.28532,0 3.01194,-0.675 3.83694,-1.5 1.16666,-1.16666 1.5,-1.16666 1.5,0 0,0.825 0.87695,1.5 1.94877,1.5 1.07183,0 1.61857,0.53428 1.21499,1.18729 -0.85147,1.37771 3.61894,4.11334 4.79689,2.9354 0.43414,-0.43415 0.78935,0.18605 0.78935,1.37821 0,1.65684 -0.66269,1.97486 -2.8125,1.34971 -1.54688,-0.44981 -3.65625,-1.75335 -4.6875,-2.89673 -1.11542,-1.2367 -3.26988,-1.91843 -5.31821,-1.6828 -1.93348,0.22241 -4.30198,-0.46269 -5.40178,-1.5625 -1.07722,-1.07722 -3.74652,-1.89203 -5.9318,-1.81069 -3.90851,0.14549 -3.9181,0.16076 -0.58871,0.9375 l 3.38449,0.78961 -2.08161,4.375 c -1.14489,2.40625 -2.66792,4.78826 -3.3845,5.29336 -2.39593,1.68882 -3.27924,0.98169 -1.92788,-1.54336 1.63787,-3.0604 0.29804,-3.19466 -3.72941,-0.37374 -1.93443,1.35494 -5.54963,2.14849 -9.96563,2.1875 -6.07367,0.0536 -8.71355,1.01079 -8.7881,3.18624 -0.0113,0.34375 3.49524,0.5207 7.79336,0.39323 4.29813,-0.12748 6.8304,0.0544 5.62728,0.40415 -2.8281,0.82216 -2.8281,3.85191 0,4.59096 1.64614,0.43019 1.49146,0.60755 -0.625,0.71666 -1.73111,0.0892 -2.8125,-0.57592 -2.8125,-1.73 0,-2.41819 -4.85368,-2.46077 -5.77851,-0.0507 -0.60749,1.58311 -18.86313,1.83421 -138.08577,1.89928 L 0,758.79854 0.01914096,692.83677 Z M 267.95204,753.125 C 267.1681,751.08209 265,750.54656 265,752.39584 c 0,0.94875 0.87605,1.59463 3.39827,2.50547 0.15029,0.0543 -0.0505,-0.74506 -0.44623,-1.77631 z M 243.75,717.60416 c 0,-0.6302 2.39062,-1.1643 5.3125,-1.18688 2.92187,-0.0226 7.84469,-0.53324 10.93959,-1.13479 5.8937,-1.14556 13.41091,-1.03615 14.66045,0.21339 0.40284,0.40283 1.3467,0.22348 2.09745,-0.39857 1.73405,-1.43676 13.50865,-2.10136 15.49374,-0.87452 0.91729,0.56693 1.49627,0.1707 1.49627,-1.02401 0,-2.12428 1.92849,-2.63478 3.05676,-0.80918 0.64947,1.05085 11.7766,0.65965 15.38074,-0.54074 1.85656,-0.61834 2.10826,1.4163 0.3125,2.52614 -2.1138,1.3064 -1.38635,3.125 1.25,3.125 1.375,0 2.5,-0.4969 2.5,-1.10421 0,-0.60732 1.19806,-1.41752 2.66235,-1.80043 1.84976,-0.48372 2.4208,-1.32569 1.87095,-2.7586 -0.43528,-1.1343 -0.4113,-2.6774 0.0532,-3.4291 0.52655,-0.85196 1.20118,-0.45638 1.7912,1.05032 0.7765,1.98287 0.96229,2.04013 1.03436,0.31881 0.0484,-1.15403 -0.78231,-2.96839 -1.84585,-4.03193 -1.74494,-1.74495 -1.4704,-1.90619 2.8125,-1.65179 L 329.375,704.375 329.54621,695 c 0.21297,-11.66166 1.6365,-20.23864 3.63064,-21.875 0.83781,-0.6875 1.86119,-2.65625 2.27416,-4.375 0.41297,-1.71875 2.02732,-5.21029 3.58743,-7.75897 l 2.83656,-4.63398 0.12665,5.88398 c 0.0696,3.23618 -0.23808,4.84506 -0.68386,3.57528 -1.10364,-3.1436 -3.01493,-0.76847 -5.66657,7.04177 -1.57142,4.62852 -1.7271,6.9422 -0.71282,10.59434 0.71371,2.56992 1.3008,6.08414 1.30462,7.80939 0.006,2.9655 4.4164,7.24544 5.91805,5.74378 0.3672,-0.3672 1.65962,-0.13674 2.87203,0.51212 3.03326,1.62336 5.3123,-1.33128 4.26021,-5.52315 -0.50976,-2.03105 -0.29613,-3.24456 0.57118,-3.24456 0.76204,0 1.38551,0.5625 1.38551,1.25 0,0.6875 0.5957,1.25 1.32377,1.25 0.72808,0 0.9609,-0.58714 0.51739,-1.30475 -0.44351,-0.71763 -0.14846,-2.09751 0.65566,-3.06643 0.80413,-0.96891 1.27443,-3.8974 1.04512,-6.50774 -0.3575,-4.06952 -0.0817,-4.68837 1.93392,-4.34127 1.90915,0.32875 2.23688,-0.19152 1.74419,-2.76888 -0.33369,-1.74554 -0.12025,-3.33584 0.47418,-3.534 0.59447,-0.19817 1.5761,-2.88967 2.18136,-5.98112 0.60527,-3.09145 1.16212,-4.40118 1.23745,-2.91055 0.0754,1.49065 0.5138,3.6923 0.97439,4.89257 0.57093,1.48785 0.37206,1.89467 -0.625,1.27846 -0.80434,-0.49711 -1.46243,-0.30814 -1.46243,0.41993 0,0.72808 0.57321,1.32378 1.27381,1.32378 0.7562,0 0.93871,1.39683 0.44917,3.4375 -1.5734,6.55852 0.82497,1.90366 2.67114,-5.18428 2.20077,-8.44931 2.21452,-8.62241 0.60588,-7.62822 -0.6875,0.4249 -1.31525,2.00497 -1.395,3.51128 -0.10413,1.96593 -0.30119,2.14803 -0.69853,0.64536 -0.30443,-1.15137 0.14015,-4.52636 0.98798,-7.5 l 1.5415,-5.40664 0.80704,3.75 c 0.68593,3.18725 0.98303,2.53071 1.9798,-4.375 0.83637,-5.79459 0.77495,-8.23065 -0.21418,-8.49336 -0.88619,-0.23538 0.0768,-4.52274 2.66701,-11.875 5.64592,-16.02525 6.62537,-18.36709 7.73094,-18.48443 7.63954,-0.81085 21.72506,-5.94921 29.09344,-10.61322 4.81145,-3.04554 11.65389,-10.00718 16.4966,-16.78399 3.911,-5.47299 6.28292,-11.58104 10.26556,-26.43536 1.72378,-6.4293 6.5197,-21.5127 10.65761,-33.51868 9.54805,-27.70328 11.30709,-35.69498 18.99453,-86.29596 6.4904,-42.72177 4.1397,-68.80221 -8.47763,-94.05711 -5.10786,-10.22393 -7.26778,-16.51028 -9.34318,-27.19289 -0.86819,-4.46875 -1.66898,-8.27771 -1.77953,-8.46435 -0.1105,-0.18665 -1.5483,0.19958 -3.19499,0.85826 -1.64668,0.65869 -2.38113,1.23328 -1.63212,1.27685 1.83555,0.10675 4.50567,6.17557 3.4609,7.86604 -0.49608,0.80266 -0.24926,0.98808 0.60911,0.45756 0.91458,-0.56523 1.44314,0.0625 1.44314,1.71397 0,2.48327 -0.17351,2.51615 -3.68793,0.69877 -4.78376,-2.47379 -5.41612,-2.4043 -3.90003,0.42855 1.53023,2.85926 0.30616,4.40155 -1.98453,2.50045 C 435.42305,322.54499 435,322.59659 435,323.79067 c 0,1.12292 -0.6793,0.98204 -2.28894,-0.47466 -1.25891,-1.13931 -2.69575,-1.66465 -3.19296,-1.16744 -0.49723,0.49722 -1.43595,0.0765 -2.08606,-0.93477 -1.03752,-1.61398 -1.33253,-1.60955 -2.4129,0.0362 -1.06738,1.62596 -1.74159,1.01181 -1.48662,-1.35416 0.13005,-1.20669 -4.04396,-0.89466 -5.72002,0.4276 -1.06268,0.83836 -1.5625,0.76331 -1.5625,-0.23461 0,-0.97324 -2.24325,-1.37654 -6.66219,-1.19777 -3.6642,0.14825 -7.28158,-0.11325 -8.03862,-0.58115 -0.75704,-0.46788 -1.71458,-0.30358 -2.12785,0.3651 -0.86824,1.4048 -4.42134,0.35305 -4.42134,-1.3088 0,-0.61394 4.14844,-1.11626 9.21875,-1.11626 5.07031,0 10.986,-0.35345 13.14597,-0.78545 l 3.92723,-0.78544 -5.49275,-5.8722 c -3.02103,-3.22971 -5.88086,-7.09501 -6.35521,-8.58955 -0.9093,-2.86494 -1.99533,-3.17152 -6.73715,-1.90187 -2.2529,0.60322 -2.53788,1.05367 -1.25,1.97585 1.28732,0.9218 1.20665,1.04837 -0.35343,0.55447 -1.16004,-0.36726 -3.69044,0.88425 -5.9375,2.93663 -4.43307,4.04899 -4.7041,3.86758 -2.00881,-1.34452 1.0489,-2.02836 2.70321,-3.68792 3.67622,-3.68792 2.27802,0 3.56599,-2.09263 2.42464,-3.93936 -0.61637,-0.99734 -1.40679,-0.73203 -2.57376,0.86391 -0.92631,1.2668 -1.6842,1.74255 -1.6842,1.05721 0,-1.81882 5.68076,-9.22267 8.69757,-11.33574 1.42684,-0.99938 2.27438,-2.33465 1.88342,-2.96723 -0.39097,-0.63259 0.0896,-0.843 1.06791,-0.46759 0.97831,0.37542 2.62806,-0.16674 3.66611,-1.20479 1.03805,-1.03805 2.26616,-1.50856 2.72915,-1.04559 0.46298,0.46298 1.37369,0.0143 2.0238,-0.99702 1.03751,-1.61398 1.33253,-1.60955 2.4129,0.0362 0.95929,1.4613 1.26441,1.04761 1.38298,-1.875 l 0.15211,-3.75 1.35832,3.4375 c 1.88209,4.76295 4.60228,4.4031 4.72442,-0.625 0.0543,-2.23438 0.37186,-3.39098 0.70576,-2.57023 0.33389,0.82077 1.47939,1.15754 2.54556,0.74842 1.49081,-0.57208 1.75224,-0.15704 1.13199,1.79718 -1.2965,4.0849 2.4893,4.48567 5.55165,0.5877 2.38912,-3.04105 2.59482,-3.10611 2.07562,-0.6566 -0.39357,1.85687 -0.0667,2.52344 1.03077,2.10229 0.8839,-0.33919 2.02572,0.0606 2.53738,0.88856 0.65512,1.06 1.60867,0.62303 3.22364,-1.47728 1.82131,-2.36864 2.29908,-2.54748 2.32114,-0.86882 0.0153,1.16255 -0.58371,2.49167 -1.33111,2.95359 -0.92619,0.57241 -0.95178,1.247 -0.0804,2.11841 0.87142,0.87142 1.95429,0.60284 3.40052,-0.8434 2.71302,-2.71302 1.86896,-14.66416 -1.52656,-21.61455 -2.01345,-4.12138 -2.81276,-4.68905 -6.23201,-4.42588 -4.42091,0.34026 -19.7086,6.8579 -21.00466,8.95497 -0.46505,0.75248 -1.40805,1.36814 -2.09555,1.36814 -0.6875,0 -0.90236,-0.5625 -0.47746,-1.25 2.20301,-3.56456 -4.86759,0.40926 -10.17929,5.72095 -4.76541,4.76542 -11.13261,8.77867 -8.10516,5.1087 1.49277,-1.80959 1.41161,-2.08214 -0.625,-2.09879 -1.88144,-0.0154 -1.99002,-0.24097 -0.55352,-1.15004 1.71069,-1.0826 2.62733,-3.54038 2.82724,-7.58082 0.051,-1.03125 0.91954,-2.82683 1.93003,-3.99018 1.01048,-1.16333 1.60263,-2.81902 1.31587,-3.6793 -0.5286,-1.5858 3.77324,-5.7789 11.25448,-10.96996 l 4.11465,-2.85506 -3.48965,-3.00123 c -1.91932,-1.65067 -4.1239,-3.00191 -4.8991,-3.00275 -0.77518,-8.8e-4 -2.10968,-0.84532 -2.96554,-1.87657 -0.85586,-1.03125 -3.41581,-1.875 -5.68877,-1.875 -2.27297,0 -5.01227,-0.87961 -6.08736,-1.9547 -1.07508,-1.07508 -2.52151,-1.60439 -3.21428,-1.17623 -0.69278,0.42817 -1.25959,0.14958 -1.25959,-0.61907 0,-0.76865 -0.5625,-1.0499 -1.25,-0.625 -0.6875,0.4249 -1.25,0.16479 -1.25,-0.57803 0,-0.74281 -1.54688,-2.00977 -3.4375,-2.81547 -1.89063,-0.8057 -4.42532,-2.29019 -5.63266,-3.29888 -2.78901,-2.3301 -4.04165,-1.16145 -2.28111,2.12814 2.75554,5.14879 1.23541,5.51096 -2.02512,0.4825 -4.02801,-6.21211 -4.87276,-6.14155 -2.22886,0.1862 1.21133,2.89913 1.52444,5.33364 0.84265,6.55193 -0.83626,1.49433 -1.70866,0.48862 -3.80671,-4.38842 -3.10568,-7.21933 -6.54345,-9.89442 -8.96528,-6.9763 -1.1831,1.42554 -1.95287,1.5274 -3.27167,0.43289 -1.20646,-1.00126 -1.33977,-1.89491 -0.44374,-2.97456 0.89553,-1.07904 0.76624,-1.97038 -0.42975,-2.96296 -2.48111,-2.05914 -1.96786,5.30786 0.80763,11.59238 2.40603,5.44798 2.13677,6.83165 -0.76478,3.9301 -1.06399,-1.06398 -2.52276,-1.93452 -3.24171,-1.93452 -0.71895,0 -2.25605,-1.82813 -3.41579,-4.0625 -1.21521,-2.34128 -2.33942,-3.37871 -2.6534,-2.4486 -0.38144,1.12997 -1.25805,0.79151 -2.9235,-1.12876 -1.61486,-1.86195 -2.40414,-2.1795 -2.45794,-0.9889 -0.0436,0.96457 -0.60757,0.43509 -1.25332,-1.17664 -0.64576,-1.61171 -2.2976,-3.2242 -3.67078,-3.58329 C 336.1235,213.75222 335,212.45169 335,211.22124 c 0,-1.68762 -0.6909,-2.07063 -2.8125,-1.55917 -2.30544,0.55579 -2.5308,0.37694 -1.25,-0.99202 1.94961,-2.08381 2.12746,-4.73501 0.1875,-2.79505 -1,1 -2.10795,0.64205 -4.0625,-1.3125 l -2.6875,-2.6875 -0.39944,2.8125 c -0.21969,1.54687 -0.99169,2.8125 -1.71556,2.8125 -0.78654,0 -0.65815,0.79279 0.31906,1.97027 1.35474,1.63234 1.32918,2.15939 -0.14899,3.07294 -1.42093,0.87819 -1.4682,1.41866 -0.23212,2.65474 1.17824,1.17824 1.55205,1.19077 1.55205,0.052 0,-0.825 0.42187,-1.5 0.9375,-1.5 0.51562,0 0.9375,1.40625 0.9375,3.125 0,1.71875 -0.0959,3.125 -0.21295,3.125 -0.11713,0 -4.17533,-2.01299 -9.01821,-4.47329 -5.78214,-2.93747 -9.67879,-4.19605 -11.34955,-3.66577 -1.82034,0.57781 -2.54429,0.25011 -2.54429,-1.15165 0,-1.07759 -0.5625,-1.95924 -1.25,-1.95924 -0.6875,0 -1.25,0.91262 -1.25,2.02805 0,1.44913 -0.44604,1.6748 -1.5625,0.79054 -5.56268,-4.40573 -16.46196,-9.20798 -19.28851,-8.49855 -1.71454,0.43031 -2.7985,0.27864 -2.41725,-0.33824 1.51531,-2.45183 -10.27907,-10.2318 -15.51132,-10.2318 -1.86623,0 -2.51958,0.64914 -2.20168,2.1875 0.24862,1.20312 1.44245,2.10477 2.65292,2.00367 1.21049,-0.10112 1.9849,0.46141 1.72093,1.25 -0.29198,0.87223 -3.49838,1.43193 -8.18628,1.42899 -4.23847,-0.002 -7.77045,0.27859 -7.84883,0.625 -1.26671,5.59773 -0.66729,7.40609 3.57547,10.78679 5.97782,4.76324 7.81705,6.65899 7.81705,8.05734 0,1.84085 -1.9057,1.36299 -5.34109,-1.33929 -4.07617,-3.20631 -4.16279,-3.19457 -9.22489,1.25 -2.34906,2.0625 -3.6251,3.75 -2.83565,3.75 0.87812,0 1.22547,1.43024 0.89468,3.68399 -0.29737,2.02619 -0.21439,3.48231 0.18441,3.23584 0.39881,-0.24648 1.74839,0.3001 2.99905,1.21461 2.68168,1.96089 2.36911,7.47434 -0.42651,7.5236 -1.03125,0.0181 -2.63818,0.51036 -3.57095,1.09375 -1.42794,0.89309 -1.42794,1.23054 0,2.13532 2.33524,1.47968 5.13856,1.38808 4.19595,-0.13711 -0.4249,-0.6875 -0.17685,-1.25 0.55122,-1.25 0.72808,0 1.32378,0.90759 1.32378,2.01688 0,1.52994 0.90535,1.884 3.75,1.46648 3.98181,-0.5844 4.64822,0.11838 2.31994,2.4467 -1.07342,1.07342 -0.75683,1.25401 1.26947,0.72411 1.48475,-0.38826 2.99195,-1.17905 3.34933,-1.7573 0.35737,-0.57823 1.97254,-0.54842 3.58926,0.0662 1.61673,0.61468 7.78024,1.29632 13.69669,1.51474 5.91643,0.21843 10.76125,0.75884 10.76623,1.2009 0.005,0.44208 0.88204,1.13875 1.94901,1.54819 1.06694,0.40943 1.6173,0.2224 1.22297,-0.41561 -0.39431,-0.63803 0.38125,-1.07732 1.72349,-0.9762 1.34222,0.10112 2.16494,0.62956 1.82823,1.17435 -0.33668,0.54477 0.4054,1.0554 1.6491,1.1347 1.2437,0.0793 3.01782,0.21992 3.94247,0.3125 0.92466,0.0926 2.48001,1.85581 3.45635,3.91831 0.97633,2.0625 1.49187,2.73641 1.14562,1.49757 -0.36206,-1.29547 -0.1045,-1.92796 0.60615,-1.48872 0.67963,0.42002 1.23569,1.54105 1.23569,2.49115 0,0.9501 0.62276,2.11235 1.38391,2.58276 0.93892,0.58028 1.12049,-0.0994 0.56468,-2.11372 -0.51783,-1.87666 0.32462,-1.12944 2.28976,2.03096 1.70995,2.75 3.67204,5.64319 4.36019,6.4293 0.68815,0.78613 0.86312,1.86069 0.38882,2.38791 -0.4743,0.52723 -0.15924,0.55398 0.70014,0.0594 0.95519,-0.54969 1.5625,-0.17041 1.5625,0.97582 0,2.1158 -2.00791,3.78789 -2.81336,2.34283 -0.2898,-0.51991 -0.27535,-0.1015 0.0321,0.92971 1.88323,6.31684 -1.49948,8.68628 -3.63897,2.54894 -0.75284,-2.15961 -1.63309,-3.66228 -1.95609,-3.33926 -1.01386,1.01385 3.59301,9.55395 4.76354,8.83053 0.61203,-0.37826 1.1128,-0.13894 1.1128,0.53185 0,2.89888 -3.21914,1.92303 -5.07564,-1.53861 -2.39266,-4.46139 -4.8841,-5.67665 -5.02305,-2.45011 -0.0754,1.74937 -0.27076,1.85326 -0.82589,0.43899 -0.39996,-1.01898 -1.42022,-2.5457 -2.26724,-3.39272 -1.22005,-1.22003 -1.68027,-1.00375 -2.21497,1.04095 -0.37122,1.41954 -1.23644,2.23395 -1.9227,1.80982 -0.68628,-0.42414 -1.60675,-0.1903 -2.04551,0.51962 -0.43877,0.70992 -1.32138,0.96716 -1.96138,0.57161 -0.63999,-0.39553 -1.2197,0.29841 -1.28822,1.54211 -0.0883,1.60194 -0.41648,1.35008 -1.12544,-0.86367 -0.55044,-1.71875 -1.06549,-2.28125 -1.14454,-1.25 -0.12541,1.63592 -0.29136,1.6416 -1.30152,0.0445 -0.63678,-1.00679 -2.58477,-1.89299 -4.32887,-1.96934 -1.7441,-0.0764 -4.16761,-0.98078 -5.38558,-2.00987 -2.79288,-2.35974 -9.91445,-4.46749 -20.33949,-6.01983 -4.46875,-0.66542 -9.94622,-1.57319 -12.17216,-2.01726 -2.22594,-0.44409 -5.03844,-0.3713 -6.25,0.16175 -2.8592,1.25794 -4.8444,1.8423 -5.99748,1.76544 -0.93707,-0.0625 -4.33036,3.43561 -4.33036,4.46409 0,0.46641 0.84375,0.52425 1.875,0.12851 1.03125,-0.39573 1.875,-0.17465 1.875,0.49126 0,0.66592 -0.4969,1.21077 -1.10421,1.21077 -0.60732,0 -1.38889,1.0886 -1.73683,2.41912 -0.47436,1.81396 -1.34529,2.23274 -3.48162,1.67407 -2.25105,-0.58866 -2.68833,-0.32627 -2.0834,1.25013 0.42108,1.09735 0.12925,2.20729 -0.64854,2.46655 -0.85103,0.28367 -0.3253,1.56024 1.32022,3.20576 2.83299,2.83299 3.66885,6.48437 1.48438,6.48437 -0.6875,0 -1.25,0.63138 -1.25,1.40305 0,0.92743 0.68147,0.83749 2.01026,-0.26531 1.708,-1.41751 2.27185,-1.31062 3.75,0.71087 1.2798,1.75022 1.76583,1.90298 1.83843,0.57781 0.0644,-1.17408 0.31008,-1.28173 0.70576,-0.30914 0.33389,0.82076 1.41125,1.18369 2.39412,0.80653 0.98289,-0.37718 1.49988,-1.15045 1.14885,-1.71842 -0.35101,-0.56795 -0.0665,-1.38596 0.63219,-1.81778 0.69871,-0.43183 1.27039,-0.15154 1.27039,0.62286 0,0.86673 1.02105,1.08394 2.65606,0.56501 1.65072,-0.52392 3.11475,-0.20096 3.86792,0.85326 0.92323,1.29228 1.04426,1.17529 0.50817,-0.49123 -0.79697,-2.4775 1.13751,-3.0265 2.20231,-0.625 0.46493,1.04857 0.65605,0.94578 0.58107,-0.3125 -0.36062,-6.05147 3.16876,-7.07947 5.36441,-1.5625 0.75242,1.89062 1.61874,2.76556 1.92512,1.9443 0.30639,-0.82127 -0.0419,-2.61242 -0.774,-3.98033 -0.73208,-1.36791 -1.30853,-3.22722 -1.28101,-4.1318 0.0275,-0.90457 0.92174,-0.0358 1.98715,1.93068 1.40519,2.59358 2.3135,3.19895 3.30789,2.20456 0.99437,-0.99438 1.9933,-0.80741 3.63785,0.68089 1.24689,1.12841 2.27567,1.54261 2.2862,0.92043 0.01,-0.62218 0.60987,-0.28748 1.33189,0.74377 1.00067,1.42927 1.10542,1.13211 0.44062,-1.25 -0.47966,-1.71875 -1.36026,-3.3125 -1.95687,-3.54167 -1.50798,-0.57925 -1.36364,-2.70836 0.18359,-2.70836 0.69761,0 2.3155,1.72186 3.59533,3.82636 l 2.32695,3.82637 0.88513,-3.51387 0.88512,-3.51386 2.48711,3.06529 c 3.08981,3.80811 6.1474,4.38287 8.40765,1.58048 1.63006,-2.02103 1.68684,-2.01861 0.97674,0.0417 -1.16426,3.37804 0.84631,2.58655 3.17531,-1.25 l 2.08674,-3.4375 -0.69228,5.16689 c -0.67442,5.03358 -0.60745,5.15068 2.59578,4.53834 2.78137,-0.53169 3.16569,-0.26848 2.49391,1.70811 -0.5604,1.6489 0.121,1.32488 2.31493,-1.10084 1.71,-1.89062 3.5527,-3.4375 4.09488,-3.4375 0.54219,0 -0.0858,1.20718 -1.39543,2.68263 -1.77158,1.9958 -1.96784,2.827 -0.76657,3.24656 1.09383,0.38201 1.21769,1.04226 0.384,2.04679 -0.67686,0.81559 -0.79745,2.18384 -0.26795,3.04057 0.7284,1.17858 1.74777,0.9402 4.18817,-0.97941 4.55905,-3.58616 5.39052,-3.14699 1.98868,1.05039 -1.59916,1.97314 -3.47007,3.29239 -4.15757,2.93167 -0.6875,-0.36072 0.16472,0.97802 1.89385,2.97498 3.58087,4.13555 7.48115,10.85374 7.48115,12.88619 0,1.9121 -2.48424,1.72561 -2.56916,-0.19287 C 307.35375,317.94583 300,311.69399 300,313.37013 c 0,0.58315 1.65416,3.06705 3.67591,5.51978 2.02176,2.45274 4.05149,5.9559 4.51051,7.78482 0.82207,3.27532 0.73868,3.32527 -5.55091,3.32527 -3.83511,0 -6.38551,0.55268 -6.38551,1.38374 0,0.81717 -0.89565,1.02618 -2.1875,0.51047 -3.93229,-1.56978 -7.76875,-1.57809 -9.06218,-0.0196 -0.70842,0.8536 -3.13532,1.32304 -5.49537,1.06296 -3.16132,-0.34838 -4.44176,0.0891 -5.08008,1.73583 -0.80693,2.08168 -0.94003,2.08402 -2.44336,0.043 -1.46762,-1.99262 -1.7174,-1.92049 -3.24695,0.9375 -1.76666,3.30103 -3.10906,3.8695 -4.35956,1.84615 -1.15799,-1.87367 -3.125,-1.50497 -3.125,0.58577 0,1.11824 -0.73286,1.55454 -1.875,1.11626 -1.14979,-0.44122 -1.875,0.001 -1.875,1.14344 0,1.02463 -0.98438,2.23431 -2.1875,2.6882 -5.29611,1.99801 -7.8125,3.9724 -7.8125,6.12976 0,1.27634 -1.125,2.6148 -2.5,2.97438 -1.375,0.35957 -2.5,1.41894 -2.5,2.35416 0,2.12778 -5.71366,5.98705 -7.35866,4.97038 -0.67023,-0.41423 -1.57758,-0.17228 -2.01634,0.53765 -0.43876,0.70992 -1.30549,0.97697 -1.92606,0.59343 -0.62058,-0.38353 -2.66025,0.30643 -4.53262,1.53324 -1.87236,1.22681 -4.33338,2.07318 -5.46895,1.8808 -1.13556,-0.19239 -2.78213,0.51474 -3.65907,1.57137 -2.044,2.46285 -6.2883,2.494 -6.2883,0.0461 0,-2.62544 -1.61181,-2.33428 -3.45991,0.625 -1.03048,1.65006 -1.10407,2.5 -0.21645,2.5 0.75661,0 1.01215,1.04818 0.58423,2.3964 -0.59717,1.88156 -0.26352,2.26642 1.553,1.7914 2.13302,-0.5578 2.28787,0.20636 1.98404,9.79109 L 211.36536,393.125 213.77989,390 c 1.32798,-1.71875 2.42702,-2.45508 2.44231,-1.63627 0.0153,0.81879 -0.45885,1.7895 -1.05365,2.1571 -0.59479,0.3676 -0.8544,2.22892 -0.57691,4.13627 0.27748,1.90735 0.55958,5.61307 0.6269,8.23495 0.0865,3.36816 0.51252,4.37689 1.45191,3.4375 2.40987,-2.40988 4.36787,-1.39054 5.24957,2.73295 0.47777,2.23437 1.39772,4.7206 2.04434,5.52495 1.41429,1.75926 1.85631,14.3234 0.57675,16.39377 -0.4987,0.80692 -0.20296,2.74437 0.6572,4.30544 0.86016,1.56109 1.43229,3.71072 1.2714,4.77696 -0.17344,1.14941 1.52064,2.80327 4.16129,4.0625 5.45742,2.60247 6.08166,2.63253 5.16696,0.24888 -0.44886,-1.16974 0.009,-1.875 1.21821,-1.875 1.59013,0 1.43324,0.81628 -0.8746,4.55044 -2.66362,4.30982 -2.69543,4.63591 -0.60177,6.16684 1.2158,0.88901 1.84959,2.20042 1.40842,2.91424 -0.44117,0.71383 -0.002,2.57938 0.97462,4.14567 0.97721,1.5663 2.09478,4.98531 2.48351,7.59782 0.62262,4.18458 0.43547,4.66391 -1.57223,4.02669 -1.73076,-0.54933 -2.43006,0.067 -2.907,2.5619 -0.73926,3.8672 0.15237,8.0364 1.71867,8.0364 0.60731,0 1.10421,-0.5625 1.10421,-1.25 0,-1.65179 3.38007,-1.60981 4.40884,0.0548 0.44351,0.71762 0.0761,2.18474 -0.81654,3.26027 -1.35861,1.63703 -1.23544,2.23885 0.7563,3.69524 1.30857,0.95686 3.11546,1.73974 4.01531,1.73974 0.89985,0 1.63609,0.80714 1.63609,1.79362 0,0.9865 0.59956,3.37059 1.33235,5.29799 l 1.33236,3.50435 2.23033,-2.9568 c 2.22351,-2.94779 2.23243,-2.9487 2.92561,-0.29799 0.38241,1.46235 1.59171,2.65883 2.68732,2.65883 1.09562,0 1.99203,0.90393 1.99203,2.00874 0,1.32265 -0.67894,1.7482 -1.9878,1.24594 -1.0933,-0.41953 -2.47498,-0.4617 -3.07041,-0.0937 -1.60928,0.99458 0.0177,4.27608 1.7841,3.59827 1.08598,-0.41672 1.46066,1.25496 1.3144,5.8645 -0.1125,3.54606 0.30038,8.48451 0.91757,10.97432 0.61719,2.48981 1.41874,5.91571 1.78121,7.61311 0.36249,1.6974 1.23667,3.78212 1.94262,4.63273 0.70595,0.85061 0.94868,2.08837 0.53943,2.75056 -0.40926,0.66219 -0.004,1.95245 0.89983,2.86726 0.90416,0.91479 2.01669,2.64764 2.47226,3.85077 0.45558,1.20312 1.72293,2.1875 2.81633,2.1875 1.0934,0 1.65337,0.54144 1.24438,1.2032 -0.42562,0.68868 0.87809,1.08958 3.04875,0.9375 2.67608,-0.18749 3.79309,-0.90959 3.79484,-2.4532 0.002,-2.65219 2.15728,-2.92543 2.72334,-0.34541 0.28674,1.30695 0.94884,1.4996 2.27915,0.66313 1.5456,-0.97182 1.6005,-1.62186 0.3125,-3.70012 -1.9843,-3.20176 -2.01905,-4.76165 -0.0625,-2.8051 2.23545,2.23545 9.85735,1.98421 8.98232,-0.29607 -0.3797,-0.98947 -1.62515,-1.50845 -2.77327,-1.15562 -1.39084,0.42743 -1.25249,0.11313 0.41595,-0.94495 5.30786,-3.36605 14.16797,-0.90471 12.5623,3.4898 -0.61034,1.67041 4.49912,5.40684 7.39372,5.40684 1.05544,0 1.91898,0.84375 1.91898,1.875 0,1.03125 0.42187,1.87939 0.9375,1.88475 1.11162,0.0113 4.0625,6.05531 4.0625,8.32047 0,1.9554 4.32405,4.41027 5.61592,3.1883 0.51957,-0.49143 0.55562,0.3721 0.0801,1.91898 -0.54476,1.77225 -0.33988,2.8125 0.55395,2.8125 0.85079,0 1.10014,1.00299 0.62305,2.50616 -0.55825,1.75889 -0.1175,2.75667 1.47826,3.34632 2.9518,1.09074 4.1059,2.86122 4.12955,6.33502 0.01,1.54687 0.58164,2.8125 1.26914,2.8125 0.6875,0 1.25,-0.91263 1.25,-2.02805 0,-3.41673 3.34146,0.29787 4.22017,4.69142 0.56469,2.82344 1.29254,3.65735 2.71557,3.11129 1.11571,-0.42814 1.61868,-0.21949 1.18041,0.48965 -0.42003,0.67963 -0.168,1.23569 0.56007,1.23569 0.72808,0 1.33239,1.26562 1.34292,2.8125 0.0155,2.2743 0.25102,2.4537 1.23086,0.9375 0.93652,-1.44916 1.23847,-1.02332 1.32954,1.875 0.0649,2.0625 0.40155,3.04687 0.74831,2.1875 0.9365,-2.32088 2.77967,-1.89119 2.68099,0.625 -0.13308,3.39305 3.51686,10.84121 4.51848,9.22055 1.34709,-2.17965 3.37529,-1.66169 2.96498,0.75717 -0.30403,1.79223 1.03244,2.33172 7.7577,3.13157 4.46875,0.53147 9.38609,0.67255 10.92742,0.31347 2.7807,-0.64777 2.78702,-0.61634 0.81387,4.05595 -1.0937,2.58984 -3.02877,6.95879 -4.30014,9.70879 -2.41418,5.22194 -4.8058,12.82123 -7.6398,24.27515 -0.92199,3.72634 -2.37445,7.00591 -3.22769,7.28795 -2.08589,0.68949 -0.99209,-4.88433 3.60234,-18.3569 1.9776,-5.79907 3.27267,-11.70532 2.87794,-13.125 -0.43349,-1.55904 -0.3048,-1.99477 0.32498,-1.10035 0.63395,0.90034 1.09577,-0.54314 1.17808,-3.6823 l 0.13537,-5.16314 -2.19288,4.24058 -2.19289,4.24057 -0.84316,-3.8389 -0.84317,-3.83888 -17.74763,-0.85228 c -9.7612,-0.4687 -19.99764,-1.07411 -22.74764,-1.34531 -16.972,-1.67375 -21.25032,-2.33618 -32.79505,-5.0777 -14.18678,-3.36894 -24.80025,-3.78688 -31.89245,-1.25588 -2.57813,0.92006 -4.6875,1.22929 -4.6875,0.68716 0,-1.45193 -5.28246,0.0865 -7.8125,2.2753 -1.20313,1.04084 -2.1875,1.53304 -2.1875,1.09378 0,-0.43927 -2.25894,0.37875 -5.01987,1.81782 -4.04948,2.11072 -5.37848,2.31889 -6.875,1.07689 -2.24813,-1.86579 -2.48533,0.0983 -0.29263,2.42315 1.28071,1.35789 0.9494,1.54825 -1.83718,1.05556 -1.86981,-0.33058 -3.10225,-0.11987 -2.73872,0.46835 0.36351,0.58819 -0.60476,1.06943 -2.15174,1.06943 -2.74152,0 -2.75129,0.0464 -0.38627,1.83525 2.36571,1.78933 2.35605,1.83624 -0.38609,1.875 -1.55164,0.0219 -2.8125,0.82037 -2.8125,1.78101 0,0.9577 -0.84375,2.06504 -1.875,2.46078 -2.08112,0.7986 -2.59638,4.54796 -0.625,4.54796 2.38104,0 1.23809,2.73716 -1.43483,3.43615 -2.56857,0.6717 -2.58528,0.77487 -0.38608,2.38297 2.19756,1.6069 2.19928,1.68088 0.039,1.68088 -2.28089,0 -2.28417,1.24075 -0.0179,6.77951 0.8182,1.99973 0.57904,2.26225 -1.42069,1.55944 -2.21932,-0.78 -2.23938,-0.71634 -0.26051,0.82648 1.58848,1.23845 1.77954,2.03603 0.7374,3.07817 -1.04213,1.04214 -0.62601,2.05654 1.606,3.91491 1.83595,1.52863 2.34255,2.52457 1.29705,2.5499 -1.42225,0.0345 -1.4351,0.37953 -0.0752,2.01809 1.35444,1.632 1.35143,2.43914 -0.0173,4.63074 -1.23592,1.97902 -1.28302,2.77909 -0.18512,3.14505 1.09816,0.36606 1.06202,0.98566 -0.1422,2.43747 -1.12567,1.3571 -1.54698,5.85862 -1.39113,14.8636 0.2576,14.88369 0.85668,17.52592 4.21539,18.59194 1.33984,0.42524 2.43606,1.57901 2.43606,2.56394 0,0.98491 0.5957,1.79076 1.32378,1.79076 0.72807,0 0.97346,0.56681 0.5453,1.25959 -0.42817,0.69277 -0.0395,1.9584 0.86372,2.8125 2.18099,2.06241 6.38078,2.36219 7.5094,0.53601 0.68286,-1.10489 1.28298,-1.08293 2.45575,0.0899 0.85363,0.85362 2.8458,1.55205 4.42705,1.55205 3.06735,0 3.90923,1.87434 1.3125,2.92215 -0.93342,0.37665 -0.6818,0.67021 0.625,0.72916 1.20313,0.0543 2.1875,-0.41694 2.1875,-1.04715 z m 92.59869,-40.83332 c 0.06,-1.45619 0.35617,-1.75238 0.7552,-0.75521 0.36108,0.90233 0.31668,1.98047 -0.0986,2.39583 -0.41536,0.41536 -0.7108,-0.32292 -0.65652,-1.64062 z m 12.48917,-35.83334 c 0.18812,-3.3456 1.97289,-6.40949 2.87931,-4.94286 0.49414,0.79953 0.29014,2.59032 -0.45335,3.97952 -1.53325,2.86491 -2.55572,3.27093 -2.42596,0.96334 z m 4.95644,-6.10649 c -0.0244,-0.43669 0.77744,-2.68669 1.78177,-5 1.00434,-2.31331 1.82815,-3.36226 1.8307,-2.33101 0.005,1.8014 -3.52175,8.95732 -3.61247,7.33101 z m -0.73991,-9.31346 c 0.53859,-1.3159 1.26229,-3.37693 1.60821,-4.58005 0.34594,-1.20313 1.09661,-2.1875 1.66816,-2.1875 1.36061,0 -1.18011,7.25935 -2.91626,8.33235 -0.88833,0.54902 -1.00959,0.0221 -0.36011,-1.5648 z m 6.124,-3.31624 c 0.1085,-1.83476 0.67462,-2.84631 1.26364,-2.258 0.58932,0.58861 0.5013,2.07667 -0.19661,3.32375 -1.08692,1.94223 -1.23615,1.79318 -1.06703,-1.06575 z m -19.79079,-44.7217 c 0.43183,-0.69871 1.30877,-0.94677 1.94877,-0.55122 1.7338,1.07154 1.41052,1.82161 -0.78515,1.82161 -1.07182,0 -1.59545,-0.57168 -1.16362,-1.27039 z M 314.375,546.25 c -0.4249,-0.6875 0.38565,-1.25 1.80122,-1.25 1.41558,0 2.57378,0.5625 2.57378,1.25 0,0.6875 -0.81055,1.25 -1.80123,1.25 -0.99067,0 -2.14887,-0.5625 -2.57377,-1.25 z m -3.125,-2.42623 c 0,-0.64692 0.55606,-1.5199 1.23569,-1.93992 0.70857,-0.43793 0.91812,0.0639 0.49126,1.17622 -0.83099,2.16553 -1.72695,2.56174 -1.72695,0.7637 z m 5.9375,-4.65162 c 0.85937,-0.34676 2.26562,-0.34676 3.125,0 0.85937,0.34676 0.15625,0.63049 -1.5625,0.63049 -1.71875,0 -2.42188,-0.28373 -1.5625,-0.63049 z m -5.64739,-9.44759 c -1.7955,-2.16344 -0.17161,-4.94641 2.0758,-3.55744 1.16258,0.71852 1.31495,1.6784 0.49812,3.138 -0.97231,1.73742 -1.4196,1.8103 -2.57392,0.41944 z m 17.74355,-3.62235 C 328.909,525.496 326.98135,525 325,525 c -1.98135,0 -3.9738,-0.60085 -4.42766,-1.33521 -0.45388,-0.73438 -1.61206,-1.03328 -2.57378,-0.66424 -1.13316,0.43484 -1.74856,-0.19506 -1.74856,-1.78978 0,-1.35402 -0.8433,-2.46077 -1.875,-2.46077 -1.03125,0 -1.875,-0.60267 -1.875,-1.33929 0,-0.7366 -0.84375,-2.18304 -1.875,-3.21429 -1.03125,-1.03125 -1.875,-2.89963 -1.875,-4.15197 0,-1.25234 -0.90469,-2.62414 -2.01041,-3.04845 -1.82933,-0.70198 -1.81596,-1.07998 0.1483,-4.19624 2.92817,-4.64549 5.53785,-6.54976 8.97602,-6.54976 1.58735,0 2.88609,-0.58716 2.88609,-1.3048 0,-0.71764 0.70312,-1.19786 1.5625,-1.06718 2.50754,0.38133 12.1875,-1.61882 12.1875,-2.51827 0,-0.4514 1.6875,-1.81756 3.75,-3.03591 2.0625,-1.21835 3.75,-1.68106 3.75,-1.02824 0,2.4468 3.81706,2.52789 6.05237,0.12856 1.27614,-1.36977 3.15881,-2.16873 4.18368,-1.77545 1.02488,0.39329 2.58491,-0.15428 3.46674,-1.21682 0.88182,-1.06254 2.6182,-1.93189 3.85861,-1.93189 1.24041,0 2.51254,-0.98437 2.82694,-2.1875 0.54443,-2.08334 0.57856,-2.08334 0.71666,0 0.0797,1.20313 0.68985,2.1875 1.35577,2.1875 0.66592,0 0.88699,0.84375 0.49127,1.875 -0.39574,1.03125 -0.0969,1.875 0.66422,1.875 0.76107,0 1.38374,-1.0918 1.38374,-2.42622 0,-1.33443 0.64405,-2.82428 1.43124,-3.31079 0.98933,-0.61144 1.23406,0.14687 0.79264,2.45606 -0.35124,1.83734 -0.17997,3.62408 0.3806,3.97053 0.56056,0.34643 1.39147,-1.35449 1.84647,-3.77984 1.00421,-5.35291 2.84058,-5.93941 2.06569,-0.65974 -0.42121,2.86988 -0.0677,3.75 1.50572,3.75 2.20364,0 4.09134,-3.30296 2.6891,-4.70521 -0.46607,-0.46606 -1.3707,-0.0199 -2.01028,0.99141 -1.01759,1.60905 -1.16289,1.60453 -1.16289,-0.0362 0,-1.03125 0.52767,-2.70954 1.17261,-3.72954 0.92461,-1.4623 1.5895,-0.8568 3.14369,2.86289 2.21877,5.31026 3.76813,5.10151 5.62139,-0.75739 l 1.26555,-4.00096 -0.58952,4.0625 c -0.5252,3.61929 -0.26198,4.0625 2.41259,4.0625 1.80803,0 3.22946,-0.87006 3.57374,-2.1875 0.54444,-2.08334 0.57856,-2.08334 0.71666,0 0.17478,2.63666 0.36435,2.65168 5.64126,0.44685 2.3133,-0.96656 4.88619,-1.29552 5.7855,-0.73971 1.73692,1.07346 6.20418,-0.89571 7.84285,-3.45714 1.38594,-2.16636 5.26377,-1.9517 9.99997,0.55358 2.20023,1.16385 5.1738,1.97942 6.60792,1.81241 1.43413,-0.16703 3.33113,0.56825 4.21555,1.63392 1.33603,1.60982 1.27698,1.93759 -0.34911,1.93759 -1.07645,0 -2.83283,1.25016 -3.90306,2.77814 -1.07023,1.52796 -1.94588,2.10812 -1.94588,1.28922 0,-0.85162 -0.85652,-1.16022 -2.00115,-0.72098 -1.10111,0.42253 -2.49062,-0.0168 -3.08942,-0.97673 -0.85059,-1.36364 -1.57377,-1.42881 -3.31134,-0.29847 -1.2227,0.7954 -2.13129,1.9204 -2.01908,2.5 0.11225,0.5796 -2.25257,1.06795 -5.25506,1.08521 -4.09489,0.0235 -6.87909,1.0323 -11.14151,4.03674 -3.12534,2.20295 -5.68244,3.50116 -5.68244,2.88491 0,-0.61624 -4.07812,-0.93201 -9.0625,-0.70173 -14.66744,0.67768 -14.22631,0.61364 -12.3241,1.78927 0.93879,0.5802 1.29848,1.71575 0.79929,2.52343 -0.49918,0.80769 0.13189,2.65477 1.40236,4.10463 1.27048,1.44985 1.69711,2.28076 0.9481,1.84646 -0.86167,-0.49961 -1.42156,0.79875 -1.52444,3.53514 -0.0894,2.37862 0.30599,4.32476 0.87869,4.32476 0.57269,0 0.97744,1.26563 0.89943,2.8125 -0.13435,2.66431 -0.68507,2.8208 -10.45203,2.97004 -6.69449,0.10225 -11.03984,0.75982 -12.39077,1.875 -1.62155,1.33855 -2.1966,1.37274 -2.60647,0.15496 -0.70223,-2.08645 -3.6957,-1.98931 -4.94295,0.1604 -1.20548,2.07775 -12.61697,4.70524 -13.59095,3.12931 z m 40.13713,-19.42278 c -0.76883,-4.09819 -0.96179,-4.25984 -2.53112,-2.12042 -1.43735,1.9595 -1.42492,2.61975 0.0807,4.28942 0.97878,1.08538 1.824,2.77288 1.87828,3.75 0.0756,1.3615 0.25121,1.39583 0.75152,0.14698 0.35907,-0.89627 0.27833,-3.62596 -0.17942,-6.06598 z M 367.5,491.94877 c 0,-1.31935 -2.39889,-1.87363 -3.1124,-0.71916 -0.43182,0.69871 0.0917,1.27039 1.16363,1.27039 1.07182,0 1.94877,-0.24805 1.94877,-0.55123 z M 375,517.5 c 0,-0.6875 0.5625,-1.25 1.25,-1.25 0.6875,0 1.25,0.5625 1.25,1.25 0,0.6875 -0.5625,1.25 -1.25,1.25 -0.6875,0 -1.25,-0.5625 -1.25,-1.25 z m 7.96786,-8.08376 c -0.38702,-1.00858 -0.46246,-2.55545 -0.16762,-3.4375 0.29483,-0.88205 0.8324,-0.0569 1.19457,1.83376 0.70718,3.69152 0.12375,4.60255 -1.02695,1.60374 z m 8.85574,-6.9994 c -0.45316,-0.73324 -0.55585,-1.60125 -0.22819,-1.92892 0.32765,-0.32766 0.92883,0.27227 1.33594,1.33317 0.84522,2.20264 0.12487,2.59007 -1.10775,0.59575 z m -18.90694,-1.73685 c 0,-1.00102 0.47793,-1.52464 1.06206,-1.16363 0.58413,0.36102 0.73844,1.18001 0.34289,1.82001 -1.01077,1.63548 -1.40495,1.45133 -1.40495,-0.65638 z m 49.68203,-5.15915 c 0.06,-1.45619 0.35617,-1.75238 0.7552,-0.75522 0.36108,0.90234 0.31668,1.98048 -0.0986,2.39584 -0.41536,0.41536 -0.7108,-0.32292 -0.65652,-1.64062 z m -164.26535,-0.10413 c -0.45834,-0.45832 -0.81624,-1.72395 -0.79533,-2.8125 0.0312,-1.62537 0.27514,-1.57137 1.36458,0.30209 1.34597,2.31461 0.95576,4.03544 -0.56925,2.51041 z M 238.75,476.80123 c 0,-1.07183 0.5625,-1.60113 1.25,-1.17623 0.6875,0.4249 1.25,1.30185 1.25,1.94877 0,0.64693 -0.5625,1.17623 -1.25,1.17623 -0.6875,0 -1.25,-0.87695 -1.25,-1.94877 z m 7.76321,-0.0523 C 245.62674,475.78701 245.45291,475 246.12695,475 c 1.29805,0 3.17715,2.37776 2.43572,3.08209 -0.24072,0.22867 -1.16297,-0.37125 -2.04946,-1.33317 z m 99.80326,-35.18827 c -2.36968,-0.27816 -4.98068,-1.42499 -5.80222,-2.5485 -0.82154,-1.12351 -2.8202,-2.10563 -4.44147,-2.18246 -4.76008,-0.22562 -12.01323,-4.2721 -16.19539,-9.03531 -3.65894,-4.16731 -3.8597,-4.91344 -3.41002,-12.67369 0.44138,-7.61703 1.3596,-10.44769 7.94599,-24.49569 1.92365,-4.10291 0.81239,-12.71549 -1.57804,-12.23024 -0.77061,0.15644 -1.03748,-0.84471 -0.63522,-2.38296 0.47373,-1.81151 0.23487,-2.36915 -0.7532,-1.75849 -0.90236,0.55764 -1.4469,-0.002 -1.4469,-1.48586 0,-1.30901 -1.04429,-3.3251 -2.32065,-4.48019 -1.50436,-1.36142 -2.11264,-3.18834 -1.72927,-5.19374 C 316.38509,360.8179 315.9987,360 314.48863,360 c -1.85726,0 -1.87631,-0.34136 -0.20003,-3.58293 1.9234,-3.71944 2.09766,-10.23316 0.3089,-11.54647 -0.56514,-0.41491 0.0896,-4.15726 1.45495,-8.31634 2.54925,-7.7654 2.54033,-21.62114 -0.016,-24.86444 -0.62216,-0.78935 -0.89421,-4.16435 -0.60455,-7.5 0.4415,-5.08438 0.93609,-6.06482 3.05944,-6.06482 1.39303,0 2.9402,-0.40345 3.43812,-0.89656 0.49794,-0.4931 2.31213,0.21002 4.03153,1.5625 1.7194,1.35248 3.63635,2.45906 4.25987,2.45906 0.62354,0 2.37141,1.1531 3.88416,2.56245 1.58542,1.47704 4.07864,2.42314 5.88599,2.23356 4.16418,-0.4368 6.15884,0.94208 5.42458,3.74989 -0.34603,1.32321 0.72686,3.86999 2.53617,6.02024 1.72476,2.04975 3.51601,5.24122 3.98056,7.09215 0.46457,1.85093 1.35402,3.68013 1.97657,4.0649 0.62255,0.38475 0.80305,1.23167 0.4011,1.88203 -1.07144,1.73363 2.07468,14.70042 3.94295,16.25094 0.87916,0.72964 1.30703,2.0861 0.95083,3.01436 -0.35621,0.92827 0.5479,2.32759 2.00914,3.10962 1.46123,0.78202 3.17844,2.79391 3.81601,4.47086 0.63758,1.67695 2.07708,3.049 3.1989,3.049 1.30488,0 1.77893,0.67951 1.31587,1.88622 -0.4179,1.08902 0.26532,2.50394 1.61653,3.34779 1.3389,0.83615 2.03342,2.26143 1.62307,3.33079 -0.53958,1.40612 -0.12163,1.65985 1.68722,1.02415 2.33994,-0.82239 2.34155,-0.79626 0.0602,0.97292 -1.34852,1.0458 -2.02887,2.63994 -1.60172,3.75308 0.4084,1.06427 0.1977,1.93505 -0.46822,1.93505 -1.59925,0 -1.56567,5.88311 0.0392,6.875 0.6875,0.4249 1.25,4.94922 1.25,10.05405 0,8.35936 -0.34152,9.66371 -3.4375,13.12841 -2.46832,2.76229 -4.94117,4.04854 -8.77077,4.56209 -4.48934,0.60202 -5.64198,1.36571 -7.28405,4.82614 -1.07293,2.26101 -2.75108,4.41803 -3.72923,4.79338 -0.97822,0.37537 -1.77852,1.54387 -1.77852,2.5967 0,1.05283 -0.4495,1.91423 -0.99889,1.91423 -0.85394,0 -4.00111,7.04076 -4.00111,8.95117 0,0.35678 2.25805,1.3939 5.01789,2.30473 4.61797,1.52407 8.52135,4.44269 7.34774,5.49402 -1.14694,1.02744 -5.79574,1.53065 -9.79915,1.06073 z M 343.75,393.75 c 0,-0.6875 -0.5625,-1.25 -1.25,-1.25 -0.6875,0 -1.25,0.5625 -1.25,1.25 0,0.6875 0.5625,1.25 1.25,1.25 0.6875,0 1.25,-0.5625 1.25,-1.25 z m -116.02915,40.41609 c 0.22227,-1.14616 1.06301,-2.30328 1.86829,-2.57139 0.93139,-0.31009 1.21946,0.4482 0.79171,2.08392 -0.79896,3.05524 -3.24494,3.50349 -2.66,0.48747 z M 355,433.82377 c 0,-0.64692 0.5625,-1.52387 1.25,-1.94877 0.6875,-0.4249 1.25,0.10437 1.25,1.17623 0,1.07182 -0.5625,1.94877 -1.25,1.94877 -0.6875,0 -1.25,-0.5293 -1.25,-1.17623 z m 2.88386,-5.7139 c -1.99407,-2.14176 0.50249,-4.18565 10.39745,-8.51217 9.07438,-3.96775 14.12221,-4.22539 18.14271,-0.92601 2.40238,1.97148 2.69369,2.84291 1.567,4.6875 -1.9046,3.11815 -4.8926,3.45963 -9.81853,1.12212 -4.75497,-2.25637 -7.43218,-2.56727 -6.29749,-0.73131 0.4249,0.6875 0.47892,1.25 0.12,1.25 -0.35888,0 -3.3452,1.06007 -6.63627,2.35572 -4.84508,1.90744 -6.26754,2.05095 -7.47492,0.75415 z m 50.46031,-12.68236 c -1.28393,-1.28394 1.70063,-4.17751 4.30888,-4.17751 2.84914,0 3.12662,3.18334 0.36971,4.24126 -2.53547,0.97295 -3.65716,0.95768 -4.67859,-0.0638 z M 220.625,400 c -0.4249,-0.6875 -0.17685,-1.25 0.55122,-1.25 0.72808,0 1.32378,0.5625 1.32378,1.25 0,0.6875 -0.24805,1.25 -0.55123,1.25 -0.30317,0 -0.89887,-0.5625 -1.32377,-1.25 z m 168.67641,-81.83825 c 2.93814,-2.31494 4.84258,-2.4755 4.14235,-0.34925 -0.28302,0.85937 -1.87677,1.71966 -3.54167,1.91175 -2.93143,0.33821 -2.9504,0.28883 -0.60068,-1.5625 z m 0.58615,-15.03675 c 2.16889,-4.24034 3.82325,-6.3177 3.8433,-4.82598 0.01,0.7832 -1.13762,2.75195 -2.55144,4.375 -2.02017,2.31913 -2.29678,2.41569 -1.29186,0.45098 z M 241.25,288.67622 c 0,-0.72807 0.5625,-0.97612 1.25,-0.55122 0.6875,0.4249 1.25,1.0206 1.25,1.32377 0,0.30318 -0.5625,0.55123 -1.25,0.55123 -0.6875,0 -1.25,-0.5957 -1.25,-1.32378 z m 16.25,-2.35245 c 0,-0.64692 0.55606,-1.5199 1.23569,-1.93992 0.70857,-0.43793 0.91812,0.0639 0.49126,1.17622 -0.83099,2.16553 -1.72695,2.56174 -1.72695,0.7637 z m 57.59869,-3.30293 c 0.06,-1.45619 0.35617,-1.75238 0.7552,-0.75522 0.36108,0.90234 0.31668,1.98047 -0.0986,2.39584 -0.41537,0.41536 -0.7108,-0.32292 -0.65652,-1.64062 z m 1.39112,-8.58511 c 1.05214,-4.93315 0.82229,-6.18619 -2.02654,-11.04733 -4.43081,-7.56061 -4.03329,-8.99459 0.59281,-2.1384 2.58233,3.82721 3.64601,6.74124 3.32806,9.11754 -0.25703,1.92088 -0.01,3.7751 0.54867,4.12045 1.05894,0.65446 -1.43677,5.51201 -2.83196,5.51201 -0.43877,0 -0.26375,-2.50393 0.38896,-5.56428 z m 124.06105,2.94432 c -0.46567,-0.75348 -0.004,-2.21231 1.02523,-3.24186 1.66255,-1.66254 1.8026,-1.50932 1.25219,1.36996 -0.68738,3.5958 -1.03527,3.88174 -2.27742,1.8719 z m -178.29537,-53.5244 c -1.12757,-1.3169 -1.72009,-2.72437 -1.31674,-3.12774 0.85123,-0.85121 5.31125,2.89888 5.31125,4.46583 0,1.79103 -1.84423,1.17325 -3.99451,-1.33809 z m 101.15852,-2.50545 c -0.54371,-2.07919 -0.38103,-2.56722 0.54655,-1.63964 0.72638,0.72638 1.07474,2.05853 0.77414,2.96033 -0.31206,0.93618 -0.87868,0.36956 -1.32069,-1.32069 z M 328.125,221.25 c -0.4249,-0.6875 0.1376,-1.25 1.25,-1.25 1.1124,0 1.6749,0.5625 1.25,1.25 -0.4249,0.6875 -0.9874,1.25 -1.25,1.25 -0.2626,0 -0.8251,-0.5625 -1.25,-1.25 z M 325,209.375 c 0,-1.08338 0.74431,-1.51091 1.875,-1.07704 1.03125,0.39574 1.875,0.8804 1.875,1.07704 0,0.19664 -0.84375,0.6813 -1.875,1.07704 -1.13069,0.43387 -1.875,0.006 -1.875,-1.07704 z m -75,-3.125 c 0,-0.6875 0.5625,-1.25 1.25,-1.25 0.6875,0 1.25,0.5625 1.25,1.25 0,0.6875 -0.5625,1.25 -1.25,1.25 -0.6875,0 -1.25,-0.5625 -1.25,-1.25 z m 127.07785,439.6875 c -0.34676,-0.85938 -0.63049,-0.15625 -0.63049,1.5625 0,1.71875 0.28373,2.42187 0.63049,1.5625 0.34676,-0.85938 0.34676,-2.26563 0,-3.125 z m -3.34699,-10.07377 c 0.0105,-0.55621 -0.54336,-0.66363 -1.23086,-0.23873 -0.6875,0.4249 -1.24139,1.72373 -1.23086,2.88627 0.0165,1.82159 0.18661,1.85459 1.23086,0.23873 0.66645,-1.03125 1.22034,-2.33007 1.23086,-2.88627 z M 376.875,631.25 c 0.4249,-0.6875 0.17685,-1.25 -0.55123,-1.25 -0.72807,0 -1.32377,0.5625 -1.32377,1.25 0,0.6875 0.24805,1.25 0.55123,1.25 0.30317,0 0.89887,-0.5625 1.32377,-1.25 z m 2.5,-8.75 c 0.4249,-0.6875 0.17685,-1.25 -0.55123,-1.25 -0.72807,0 -1.32377,0.5625 -1.32377,1.25 0,0.6875 0.24805,1.25 0.55123,1.25 0.30317,0 0.89887,-0.5625 1.32377,-1.25 z m 11.10195,-3.18993 c 0.42686,-1.1124 0.21731,-1.61415 -0.49126,-1.17622 -0.67963,0.42002 -1.23569,1.293 -1.23569,1.93992 0,1.79804 0.89596,1.40183 1.72695,-0.7637 z m -25.87306,-2.04445 c -0.39903,-0.99716 -0.69523,-0.70097 -0.7552,0.75522 -0.0542,1.3177 0.24116,2.05598 0.65652,1.64062 0.41536,-0.41536 0.45977,-1.4935 0.0986,-2.39584 z m 75.1547,-1.67369 c -0.38486,-0.38487 -1.08382,0.30888 -1.55323,1.54166 -0.67835,1.7815 -0.53477,1.92507 0.69975,0.69975 0.85428,-0.84793 1.23834,-1.85655 0.85348,-2.24141 z m 2.5,-8.75 c -0.38486,-0.38487 -1.08382,0.30888 -1.55323,1.54166 -0.67835,1.7815 -0.53477,1.92507 0.69975,0.69975 0.85428,-0.84793 1.23834,-1.85655 0.85348,-2.24141 z M 502.5,605 c 0,-0.6875 -0.5957,-1.25 -1.32377,-1.25 -0.72808,0 -0.97613,0.5625 -0.55123,1.25 0.4249,0.6875 1.0206,1.25 1.32377,1.25 0.30318,0 0.55123,-0.5625 0.55123,-1.25 z m 35,-4.09308 c 0,-0.61339 -0.70313,-0.86939 -1.5625,-0.56891 -0.85938,0.30049 -1.38425,1.52882 -1.1664,2.72962 0.26376,1.45383 -0.114,1.86801 -1.13064,1.23967 -1.03895,-0.64211 -1.20438,-0.422 -0.5178,0.68892 0.78778,1.27463 1.37815,1.12759 2.69314,-0.67077 0.92631,-1.2668 1.6842,-2.80514 1.6842,-3.41853 z M 520,597.26109 c 0,-1.78923 -2.20754,-1.07621 -2.99126,0.96615 -1.36654,3.56112 -0.71759,4.94847 1.15601,2.47135 1.00939,-1.33453 1.83525,-2.8814 1.83525,-3.4375 z M 497.5,598.75 c 0,-0.6875 -0.5957,-1.25 -1.32377,-1.25 -0.72808,0 -0.97613,0.5625 -0.55123,1.25 0.4249,0.6875 1.0206,1.25 1.32377,1.25 0.30318,0 0.55123,-0.5625 0.55123,-1.25 z m 10.31734,-4.09544 0.56476,-3.848 -2.28113,2.81708 c -1.26038,1.5565 -2.91863,2.42307 -3.70581,1.93657 -1.43702,-0.88813 -3.89726,1.77062 -2.99272,3.23419 0.26812,0.43383 2.14408,0.54564 4.16881,0.24848 2.99737,-0.43993 3.78625,-1.25523 4.24609,-4.38832 z m -15.71345,1.36106 c -0.39903,-0.99716 -0.69523,-0.70097 -0.7552,0.75522 -0.0542,1.3177 0.24116,2.05598 0.65652,1.64062 0.41536,-0.41536 0.45977,-1.4935 0.0986,-2.39584 z M 556.25,591.25 c 0,-0.6875 -0.5625,-1.25 -1.25,-1.25 -0.6875,0 -1.25,0.5625 -1.25,1.25 0,0.6875 0.5625,1.25 1.25,1.25 0.6875,0 1.25,-0.5625 1.25,-1.25 z m -60.39611,-18.98438 c -0.39903,-0.99716 -0.69523,-0.70097 -0.7552,0.75522 -0.0542,1.3177 0.24116,2.05598 0.65652,1.64062 0.41536,-0.41536 0.45977,-1.4935 0.0986,-2.39584 z M 498.75,557.5 c 0,-1.375 -0.21565,-2.5 -0.47921,-2.5 -0.26357,0 -0.7734,1.125 -1.13298,2.5 -0.35957,1.375 -0.14392,2.5 0.47921,2.5 0.62314,0 1.13298,-1.125 1.13298,-2.5 z m 32.07785,-4.0625 c -0.34676,-0.85938 -0.63049,-0.15625 -0.63049,1.5625 0,1.71875 0.28373,2.42187 0.63049,1.5625 0.34676,-0.85938 0.34676,-2.26563 0,-3.125 z m -218.81911,-1.66474 c -0.41731,-1.08747 -0.75874,-2.21247 -0.75874,-2.5 0,-0.28751 -0.50984,-0.52276 -1.13298,-0.52276 -0.62313,0 -0.83878,1.125 -0.47921,2.5 0.35958,1.375 1.21084,2.5 1.89171,2.5 0.68088,0 0.89652,-0.88975 0.47922,-1.97724 z M 500.625,552.5 c 0.4249,-0.6875 0.17685,-1.25 -0.55123,-1.25 -0.72807,0 -1.32377,0.5625 -1.32377,1.25 0,0.6875 0.24805,1.25 0.55123,1.25 0.30317,0 0.89887,-0.5625 1.32377,-1.25 z m 32.8125,-3.13721 c 2.0282,-0.65218 2.77775,-1.8223 2.6879,-4.19608 L 536.0008,541.875 535,545 533.9992,548.125 533.85546,545 c -0.112,-2.43461 -0.40066,-2.71876 -1.30663,-1.2862 -0.63959,1.01134 -1.49047,1.51122 -1.89084,1.11086 -0.78746,-0.78746 1.45114,-7.48452 2.85771,-8.54922 1.51906,-1.14984 3.9843,-6.18233 3.9843,-8.13348 0,-1.04057 0.503,-1.89196 1.11776,-1.89196 0.61478,0 1.16127,-1.26563 1.21441,-2.8125 0.0531,-1.54688 0.35284,-5.73221 0.66597,-9.30075 0.46136,-5.25795 0.23108,-6.35845 -1.21442,-5.80376 -0.98426,0.3777 -1.78372,-0.0478 -1.78372,-0.94925 0,-1.2695 -0.33399,-1.29975 -1.49804,-0.1357 -1.83155,1.83155 -2.34283,21.50196 -0.55888,21.50196 0.67297,0 0.9291,0.29449 0.56916,0.65443 -1.86221,1.86222 -4.51224,-1.19086 -4.51224,-5.19853 0,-2.40491 -0.3375,-4.71006 -0.75,-5.12256 -0.4125,-0.4125 -0.75,1.3125 -0.75,3.83332 0,2.52084 -0.50143,4.58334 -1.11428,4.58334 -0.61285,0 -2.03602,2.30369 -3.16261,5.1193 -1.40027,3.49964 -2.617,4.90109 -3.8457,4.4296 -0.98853,-0.37935 -2.12981,-0.15179 -2.53615,0.50569 -0.40635,0.65747 -1.83061,1.19541 -3.16503,1.19541 -3.10739,0 -3.13183,3.20256 -0.0629,8.2354 2.16356,3.548 2.84595,3.83697 8.43284,3.57106 3.34332,-0.15912 7.3444,-0.69629 8.89127,-1.19367 z M 262.5,538.05123 c 0,-1.07183 -0.57167,-1.59545 -1.27039,-1.16363 -0.69871,0.43183 -0.94677,1.30877 -0.55122,1.94877 1.07153,1.73381 1.82161,1.41052 1.82161,-0.78515 z m 274.60389,-35.78561 c -0.39903,-0.99716 -0.69523,-0.70097 -0.7552,0.75522 -0.0543,1.3177 0.24116,2.05598 0.65652,1.64062 0.41536,-0.41536 0.45977,-1.4935 0.0986,-2.39584 z m -31.22173,-6.32812 c -0.29794,-1.54688 -0.54171,-0.28125 -0.54171,2.8125 0,3.09375 0.24377,4.35937 0.54171,2.8125 0.29795,-1.54688 0.29795,-4.07813 0,-5.625 z m -1.27827,-7.42188 c -0.39903,-0.99716 -0.69523,-0.70097 -0.7552,0.75522 -0.0542,1.3177 0.24116,2.05598 0.65652,1.64062 0.41536,-0.41536 0.45977,-1.4935 0.0986,-2.39584 z M 235.45204,488.125 C 234.6681,486.08209 232.5,485.54656 232.5,487.39584 c 0,0.94875 0.87605,1.59463 3.39827,2.50547 0.15029,0.0542 -0.0505,-0.74506 -0.44623,-1.77631 z m 269.1642,-15.28871 c -0.31693,-1.21621 -0.59708,-0.52379 -0.62255,1.53871 -0.0255,2.0625 0.23382,3.05757 0.57623,2.21129 0.3424,-0.84629 0.36324,-2.53379 0.0464,-3.75 z M 238.75,466.875 c 0,-1.03125 -0.84375,-1.875 -1.875,-1.875 -1.03125,0 -1.875,0.84375 -1.875,1.875 0,1.03125 0.84375,1.875 1.875,1.875 1.03125,0 1.875,-0.84375 1.875,-1.875 z m 262.53226,-13.13347 -1.02636,-4.36653 -0.12795,3.85416 c -0.0704,2.1198 0.24705,4.22918 0.70539,4.6875 1.40721,1.40721 1.51827,0.37431 0.44892,-4.17513 z m -2.42617,-15.12256 c -1.1012,-2.75291 -1.204,-2.7843 -1.27685,-0.38981 -0.0436,1.4323 0.29576,2.97918 0.7541,3.4375 1.49296,1.49298 1.74688,0.0126 0.52275,-3.04769 z m -2.37339,-8.65121 c -0.69248,-1.87194 -1.38728,-2.38344 -1.96586,-1.44725 -0.49219,0.79636 -0.16295,2.24205 0.73163,3.21264 2.1502,2.33286 2.54263,1.77155 1.23423,-1.76539 z M 94.603892,426.01562 c -0.399032,-0.99716 -0.695228,-0.70097 -0.755208,0.75522 -0.05428,1.3177 0.24116,2.05598 0.656525,1.64062 0.415364,-0.41536 0.459772,-1.4935 0.09869,-2.39584 z m 407.077458,0.80547 c -0.40711,-1.0609 -1.00829,-1.66083 -1.33594,-1.33317 -0.32766,0.32767 -0.22497,1.19568 0.22819,1.92892 1.23256,1.99432 1.95297,1.60689 1.10775,-0.59575 z m -7.93631,-5.58037 c -0.74835,-1.39831 -0.98133,-3.15615 -0.5177,-3.90631 0.46362,-0.75016 0.14116,-1.79765 -0.71658,-2.32776 -0.88057,-0.54423 -1.52689,-3.32829 -1.48456,-6.39496 0.0412,-2.98713 -0.3458,-5.72489 -0.86006,-6.08391 -0.51426,-0.35903 -2.161,-6.27778 -3.65943,-13.15278 -1.49841,-6.875 -2.95782,-13.34375 -3.24314,-14.375 -0.2853,-1.03125 -2.35351,-11.01719 -4.59601,-22.19098 -2.24251,-11.17377 -4.23995,-20.15331 -4.43875,-19.9545 -0.19881,0.19882 -0.4889,4.841 -0.64465,10.31598 -0.27997,9.84169 0.30957,12.69414 7.35342,35.5795 1.16382,3.78125 2.17682,7.4375 2.25111,8.125 0.0743,0.6875 0.7248,3.5 1.44558,6.25 0.72078,2.75 2.57279,10.34375 4.11557,16.875 1.54277,6.53125 3.25498,12.36541 3.80492,12.96482 0.54993,0.5994 0.72012,2.00565 0.37818,3.125 -0.51291,1.67904 -0.3772,1.65529 0.77552,-0.13576 1.01292,-1.57382 1.02298,-2.87022 0.0366,-4.71334 z M 99.577851,418.4375 c -0.346766,-0.85938 -0.630482,-0.15625 -0.630482,1.5625 0,1.71875 0.283716,2.42187 0.630482,1.5625 0.346765,-0.85938 0.346765,-2.26563 0,-3.125 z m -16.211612,-9.35121 c -0.31693,-1.21621 -0.597079,-0.52379 -0.622553,1.53871 -0.02548,2.0625 0.233832,3.05757 0.576235,2.21129 0.342404,-0.84629 0.363246,-2.53379 0.04631,-3.75 z m 14.995418,-1.27379 c -0.31441,-1.20313 -0.571653,-0.21875 -0.571653,2.1875 0,2.40625 0.257243,3.39062 0.571653,2.1875 0.314409,-1.20313 0.314409,-3.17188 0,-4.375 z M 549.60389,364.76562 c -0.39903,-0.99716 -0.69523,-0.70097 -0.7552,0.75522 -0.0543,1.3177 0.24116,2.05598 0.65652,1.64062 0.41536,-0.41536 0.45977,-1.4935 0.0986,-2.39584 z M 215,362.5 c 0,-0.6875 -0.24805,-1.25 -0.55123,-1.25 -0.30317,0 -0.89887,0.5625 -1.32377,1.25 -0.4249,0.6875 -0.17685,1.25 0.55122,1.25 0.72808,0 1.32378,-0.5625 1.32378,-1.25 z M 92.103892,354.76562 c -0.399032,-0.99716 -0.695228,-0.70097 -0.755208,0.75522 -0.05428,1.3177 0.24116,2.05598 0.656525,1.64062 0.415364,-0.41536 0.459772,-1.4935 0.09869,-2.39584 z m 442.077458,-6.69453 c -0.40711,-1.0609 -1.00829,-1.66083 -1.33594,-1.33317 -0.32766,0.32767 -0.22497,1.19568 0.22819,1.92892 1.23256,1.99432 1.95297,1.60689 1.10775,-0.59575 z m -2.5,-6.25 c -0.40711,-1.0609 -1.00829,-1.66083 -1.33594,-1.33317 -0.32766,0.32767 -0.22497,1.19568 0.22819,1.92892 1.23256,1.99432 1.95297,1.60689 1.10775,-0.59575 z M 89.577851,338.4375 c -0.346766,-0.85938 -0.630482,-0.15625 -0.630482,1.5625 0,1.71875 0.283716,2.42187 0.630482,1.5625 0.346765,-0.85938 0.346765,-2.26563 0,-3.125 z M 275,328.85316 l 3.125,-0.89762 -3.75,-1.99118 c -5.9841,-3.17743 -10.93126,-9.19421 -11.80325,-14.35524 -0.64009,-3.78841 -1.28899,-4.65914 -3.24831,-4.35883 -1.34664,0.2064 -3.01179,0.44077 -3.70034,0.52082 -0.68854,0.08 -2.93854,1.76122 -5,3.7359 -2.18724,2.09519 -2.83714,3.25412 -1.5606,2.78294 1.2522,-0.4622 2.1875,-0.21579 2.1875,0.57631 0,0.76107 -0.4769,1.38374 -1.05978,1.38374 -0.58287,0 -1.10071,1.54688 -1.15075,3.4375 -0.0945,3.56998 2.83065,8.14723 6.0039,9.39494 2.56444,1.00833 16.19315,0.85176 19.95663,-0.22928 z M 226.25,327.5 c 0,-0.6875 -0.5625,-1.25 -1.25,-1.25 -0.6875,0 -1.25,0.5625 -1.25,1.25 0,0.6875 0.5625,1.25 1.25,1.25 0.6875,0 1.25,-0.5625 1.25,-1.25 z m 67.79765,-3.75 c -0.66256,-6.32495 -1.57357,-6.72776 -4.08314,-1.8054 -3.08098,6.04319 -3.12586,5.79755 0.97299,5.32593 2.83621,-0.32634 3.38024,-0.94216 3.11015,-3.52053 z M 418.75,304.92622 c 0,-0.64692 -0.5625,-1.17622 -1.25,-1.17622 -0.6875,0 -1.25,0.87695 -1.25,1.94877 0,1.07183 0.5625,1.60113 1.25,1.17623 0.6875,-0.4249 1.25,-1.30185 1.25,-1.94878 z m 29.02739,-16.73216 c 0.3698,0.3698 1.04855,-0.82646 1.50832,-2.65835 0.45978,-1.83189 0.52734,-3.63934 0.15013,-4.01655 -0.37722,-0.3772 -0.68584,0.0747 -0.68584,1.00444 0,0.92965 -1.26563,3.11575 -2.8125,4.85801 -1.54688,1.74225 -1.917,2.48651 -0.82249,1.6539 1.0945,-0.8326 2.29258,-1.21126 2.66238,-0.84145 z m -167.54823,-15.9649 c -0.89695,-0.89695 -1.47916,-0.97075 -1.47916,-0.1875 0,0.71043 0.375,1.66668 0.83334,2.125 0.45832,0.45834 1.12395,0.54271 1.47916,0.1875 0.35521,-0.3552 -0.0197,-1.31145 -0.83334,-2.125 z M 280.625,267.5 c -0.4249,-0.6875 -1.44248,-1.24139 -2.26128,-1.23086 -0.89451,0.0113 -0.74033,0.50278 0.38628,1.23086 2.4014,1.55191 2.83413,1.55191 1.875,0 z m 22.03011,-7.83334 c -1.23452,-1.22532 -1.3781,-1.08175 -0.69975,0.69975 0.46941,1.23278 1.16836,1.92653 1.55323,1.54166 0.38486,-0.38486 8e-4,-1.39348 -0.85348,-2.24141 z m 116.75296,-3.17525 c -0.38486,-0.38486 -1.39348,-8e-4 -2.24141,0.85348 -1.22532,1.23452 -1.08175,1.3781 0.69975,0.69975 1.23278,-0.46942 1.92653,-1.16836 1.54166,-1.55323 z M 423.75,255 c 0,-0.6875 -0.24805,-1.25 -0.55123,-1.25 -0.30317,0 -0.89887,0.5625 -1.32377,1.25 -0.4249,0.6875 -0.17685,1.25 0.55123,1.25 0.72807,0 1.32377,-0.5625 1.32377,-1.25 z m -70.01914,-35.9375 c -0.023,-2.62864 -2.07086,-6.13916 -3.02479,-5.18524 -0.59404,0.59405 1.90747,7.33728 2.73143,7.36299 0.17187,0.005 0.30389,-0.97463 0.29336,-2.17775 z M 321.25,201.25 c 0,-0.6875 -0.5625,-1.25 -1.25,-1.25 -0.6875,0 -1.25,0.5625 -1.25,1.25 0,0.6875 0.5625,1.25 1.25,1.25 0.6875,0 1.25,-0.5625 1.25,-1.25 z m -4.46254,-2.35836 c 0.37676,-0.6096 -0.10825,-1.76675 -1.07789,-2.57144 -1.44042,-1.19546 -1.63988,-0.99271 -1.09043,1.10836 0.74248,2.8393 1.14847,3.11324 2.16832,1.46308 z M 293.19479,178.6546 C 291.43765,175.01224 290,171.29364 290,170.39106 c 0,-0.90259 -0.51425,-1.64106 -1.14279,-1.64106 -0.62852,0 -2.91101,-2.87376 -5.0722,-6.38613 -2.16119,-3.51237 -4.26705,-6.0485 -4.67971,-5.63585 -0.41265,0.41267 -1.51875,0.11251 -2.458,-0.667 -2.96261,-2.45875 -2.50795,-0.70067 2.31174,8.93898 3.43433,6.86885 4.70122,8.53466 4.73916,6.23149 0.0285,-1.72893 -1.10663,-5.30488 -2.52248,-7.94655 -1.41585,-2.64168 -2.36675,-5.01058 -2.11311,-5.26422 0.52795,-0.52795 6.26973,8.98813 12.30001,20.38532 4.96058,9.37546 6.32439,9.56048 1.83217,0.24856 z m 35.47077,-0.11 c -1.88206,-3.57509 -7.41556,-10.33746 -7.41556,-9.06244 0,1.52525 7.77601,13.15849 8.38707,12.54743 0.31102,-0.31101 -0.12616,-1.87928 -0.97151,-3.48503 z m 53.84051,-1.65357 c -0.72931,-1.91824 -1.58175,-3.23198 -1.89431,-2.91943 -0.31256,0.31256 0.11688,2.38367 0.95444,4.60246 0.8375,2.2188 1.68995,3.53254 1.89431,2.91943 0.20438,-0.61311 -0.22512,-2.68423 -0.95444,-4.60246 z m -22.90218,1.62463 c -0.39903,-0.99716 -0.69523,-0.70097 -0.7552,0.75522 -0.0542,1.3177 0.24116,2.05598 0.65652,1.64062 0.41536,-0.41538 0.45976,-1.4935 0.0986,-2.39584 z m 47.77221,-4.45312 c -3.48276,-8.15718 -5.13139,-9.44664 -2.58709,-2.02349 1.74033,5.07749 3.42883,7.84009 4.85406,7.94185 0.14745,0.01 -0.8727,-2.65274 -2.26697,-5.91836 z m -93.13229,1.875 c -2.54549,-4.40102 -5.83737,-8.51062 -6.38141,-7.96657 -0.33818,0.33818 0.91495,2.62057 2.78472,5.07197 3.31174,4.3419 5.41093,6.03132 3.59669,2.8946 z m 79.75266,-0.76644 c 0.99375,1.41834 1.11417,1.40796 0.71843,-0.0619 C 394.22565,173.29206 390,171.9863 390,173.65227 c 0,1.74675 1.82147,2.75832 2.31277,1.28442 0.35073,-1.05219 0.82893,-0.98563 1.68371,0.23437 z m -6.34388,-3.51481 c -1.47355,-2.53401 -1.82939,-1.72294 -0.62317,1.42042 0.42868,1.11713 1.04274,1.76783 1.36458,1.44599 0.32184,-0.32184 -0.0113,-1.61172 -0.74141,-2.86641 z m 22.8623,-1.64136 c -0.81349,-0.81349 -1.30382,-0.32317 -1.43635,1.43635 -0.15157,2.01203 0.15331,2.31691 1.23511,1.23511 0.94602,-0.94603 1.01472,-1.85798 0.20124,-2.67146 z m 66.22443,-2.67137 c -2.64921,-6.84886 -4.74492,-9.35521 -3.52735,-4.21852 1.0974,4.62971 4.26544,11.06425 5.0575,10.27219 0.32183,-0.32183 -0.36673,-3.04598 -1.53015,-6.05367 z M 293.75,171.94877 c 0,-0.30317 -0.5625,-0.89887 -1.25,-1.32377 -0.6875,-0.4249 -1.25,-0.17685 -1.25,0.55122 0,0.72808 0.5625,1.32378 1.25,1.32378 0.6875,0 1.25,-0.24805 1.25,-0.55123 z m 87.5,-1.19003 c 0,-0.2702 -0.87296,-0.82625 -1.93993,-1.23569 -1.1124,-0.42686 -1.61415,-0.21731 -1.17622,0.49126 0.73408,1.18776 3.11615,1.75681 3.11615,0.74443 z m 1.46056,-3.54818 c -0.92759,-0.92759 -1.09026,-0.43955 -0.54655,1.63964 0.44202,1.69025 1.00863,2.25687 1.32069,1.32069 0.3006,-0.9018 -0.0477,-2.23395 -0.77414,-2.96033 z M 390,168.75 c 0,-0.6875 -0.5957,-1.25 -1.32377,-1.25 -0.72808,0 -0.97613,0.5625 -0.55123,1.25 0.4249,0.6875 1.0206,1.25 1.32377,1.25 0.30318,0 0.55123,-0.5625 0.55123,-1.25 z m -69.22713,-8.32699 c -1.05753,-1.95141 -1.9453,-3.1526 -1.97282,-2.66932 -0.0846,1.48584 2.82345,7.28947 3.37583,6.7371 0.28587,-0.28588 -0.34548,-2.11638 -1.40301,-4.06778 z m 10.63224,0.49365 c -1.23452,-1.22532 -1.3781,-1.08175 -0.69975,0.69975 0.46941,1.23278 1.16836,1.92653 1.55323,1.54167 0.38486,-0.38487 8e-4,-1.39349 -0.85348,-2.24142 z m 47.34489,2.28211 c 0,-0.30317 -0.5625,-0.89887 -1.25,-1.32377 -0.6875,-0.4249 -1.25,-0.17685 -1.25,0.55122 0,0.72808 0.5625,1.32378 1.25,1.32378 0.6875,0 1.25,-0.24805 1.25,-0.55123 z m 64.48687,-13.49263 c -2.18845,-6.6644 -4.93487,-12.10574 -7.73811,-15.33114 l -4.34557,-5 5.03252,10 c 2.76789,5.5 5.03968,10.72119 5.04841,11.60265 0.0269,2.71759 3.75109,10.7038 4.59699,9.85791 0.43906,-0.43906 -0.72835,-5.4473 -2.59424,-11.12942 z m -63.08176,7.46052 c -1.23452,-1.22532 -1.3781,-1.08175 -0.69975,0.69975 0.46941,1.23278 1.16836,1.92653 1.55323,1.54166 0.38486,-0.38486 8e-4,-1.39348 -0.85348,-2.24141 z M 417.5,155.5416 c 0,-1.61609 -6.58789,-9.19126 -7.77454,-8.93968 -0.70837,0.15019 -1.57187,-0.50835 -1.91887,-1.46342 -0.43575,-1.19931 -0.0974,-1.42285 1.09375,-0.72263 0.94856,0.55763 0.65311,-0.20782 -0.65658,-1.70101 -2.53145,-2.88612 -4.49376,-3.5258 -4.49376,-1.46486 0,0.6875 0.8261,1.25 1.83577,1.25 1.11013,0 1.55417,0.73385 1.12334,1.85654 -0.39199,1.02151 0.7501,3.59465 2.53924,5.72091 1.78841,2.1254 3.26875,3.39932 3.28966,2.83096 0.0209,-0.56837 0.61135,-0.049 1.31211,1.15409 1.19452,2.05085 3.64988,3.04587 3.64988,1.4791 z m -141.00784,-4.89265 c -1.4824,-1.88456 -2.87582,-2.69396 -3.34127,-1.94084 -1.04237,1.68658 0.4317,4.0429 1.94431,3.10805 0.64485,-0.39854 1.51923,0.17905 1.94305,1.28353 0.42383,1.10447 1.04649,1.73225 1.38368,1.39505 0.3372,-0.3372 -0.5312,-2.0678 -1.92977,-3.84579 z m 125.48365,-5.51794 c -6.64822,-8.63986 -9.30715,-10.84792 -6.48036,-5.38152 1.07357,2.07605 2.38566,3.96608 2.91575,4.20007 0.53009,0.23399 2.56748,2.57176 4.52754,5.19504 1.96005,2.62327 3.84752,4.4858 4.19438,4.13895 0.34686,-0.34686 -1.97393,-4.0155 -5.15731,-8.15254 z m 15.95554,5.44008 c -0.40711,-1.0609 -1.00829,-1.66083 -1.33594,-1.33317 -0.32766,0.32767 -0.22497,1.19568 0.22819,1.92892 1.23256,1.99432 1.95297,1.60689 1.10775,-0.59575 z M 376.25,150.77805 c 0,-0.25956 -0.98438,-1.24394 -2.1875,-2.1875 -1.98258,-1.55484 -2.02679,-1.51063 -0.47195,0.47195 1.63296,2.08219 2.65945,2.74435 2.65945,1.71555 z m 43.01005,-3.90305 c -2.29735,-3.5062 -3.84339,-4.03114 -3.84339,-1.30499 0,1.00102 0.40503,1.5697 0.90004,1.26376 0.49501,-0.30593 1.59514,0.28132 2.44473,1.30499 2.44183,2.94225 2.74728,2.16811 0.49862,-1.26376 z m 24.64506,-3.45834 c -1.23452,-1.22532 -1.3781,-1.08175 -0.69975,0.69975 0.46942,1.23278 1.16837,1.92653 1.55323,1.54166 0.38486,-0.38486 8e-4,-1.39348 -0.85348,-2.24141 z m -74.1267,-3.72916 c -0.85775,-1.54688 -1.47129,-3.14063 -1.36342,-3.54166 0.10787,-0.40105 -0.53642,-0.72918 -1.43173,-0.72918 -1.24706,0 -1.15772,0.82663 0.38194,3.53376 1.10539,1.94358 2.45146,3.53733 2.99127,3.54168 0.53982,0.004 0.27969,-1.25773 -0.57806,-2.8046 z m 34.4103,-2.84723 c -0.40306,-1.05035 -1.93229,-2.53293 -3.39827,-3.29465 -2.45192,-1.27397 -2.42268,-1.12098 0.36495,1.90973 3.48578,3.78975 4.05605,4.05011 3.03332,1.38492 z m 6.29578,-1.25428 c -1.14023,-1.7402 -2.36849,-2.86865 -2.72948,-2.50767 -0.60116,0.60117 3.2811,5.67168 4.34254,5.67168 0.25305,0 -0.47283,-1.4238 -1.61306,-3.16401 z m 7.62426,-6.86742 c -1.1237,-2.173 -2.32781,-3.66618 -2.6758,-3.31818 -0.34799,0.34798 0.32069,2.08776 1.48594,3.86616 1.16525,1.7784 1.7395,3.23345 1.2761,3.23345 -0.46339,0 -0.4251,0.67542 0.0851,1.50094 1.98114,3.20553 1.83145,-1.40942 -0.17134,-5.28237 z m 25.64125,5.7302 c 0,-0.30317 -0.5625,-0.89887 -1.25,-1.32377 -0.6875,-0.4249 -1.25,-0.17685 -1.25,0.55122 0,0.72808 0.5625,1.32378 1.25,1.32378 0.6875,0 1.25,-0.24805 1.25,-0.55123 z m -77.5,-1.19003 c 0,-0.2702 -0.87296,-0.82625 -1.93993,-1.23569 -1.1124,-0.42686 -1.61415,-0.21731 -1.17622,0.49126 0.73408,1.18776 3.11615,1.75681 3.11615,0.74443 z m 60.69311,-4.63209 c -1.01489,-2.33841 -1.86727,-3.57499 -1.89419,-2.74796 -0.0601,1.84912 2.6887,8.05035 3.29832,7.44074 0.24262,-0.24263 -0.38923,-2.35438 -1.40413,-4.69278 z m -28.19311,2.1514 c 0,-0.25956 -0.98438,-1.24394 -2.1875,-2.1875 -1.98258,-1.55484 -2.02679,-1.51062 -0.47195,0.47195 1.63296,2.08219 2.65945,2.74435 2.65945,1.71555 z m 6.25,-5 c 0,-0.25956 -0.98438,-1.24394 -2.1875,-2.18749 -1.98258,-1.55484 -2.02679,-1.51063 -0.47195,0.47194 1.63296,2.08219 2.65945,2.74435 2.65945,1.71555 z m 42.5,-16.24999 c 0,-0.25957 -0.98438,-1.24395 -2.1875,-2.1875 -1.98258,-1.55484 -2.02679,-1.51063 -0.47195,0.47194 1.63296,2.08218 2.65945,2.74435 2.65945,1.71556 z M 135,54.975284 c 3.09375,-0.490189 4.64062,-1.036722 3.4375,-1.214518 -5.74743,-0.849347 -8.81711,-0.33063 -11.63609,1.966278 -2.39173,1.948782 -2.39067,1.96391 0.0736,1.058267 1.375,-0.505327 5.03125,-1.31984 8.125,-1.810027 z m 162.5,-32.53827 c 0,-1.700924 -2.26446,-2.579387 -3.1124,-1.207404 -0.43182,0.698715 -1.87695,1.27039 -3.21138,1.27039 -1.33442,0 -2.42622,0.44955 -2.42622,0.998999 0,0.54945 1.96875,0.769158 4.375,0.488242 2.40625,-0.280916 4.375,-0.978518 4.375,-1.550227 z m -15.91371,-0.756935 c -0.84629,-0.342404 -2.53379,-0.363247 -3.75,-0.04631 -1.21622,0.31693 -0.52379,0.597079 1.53871,0.622553 2.0625,0.02548 3.05757,-0.233831 2.21129,-0.576235 z m -7.62945,-1.525798 c -1.2683,-0.803962 -1.04358,-1.220772 0.9375,-1.738835 1.5097,-0.394797 2.64717,-0.07343 2.70435,0.764079 0.0699,1.024126 0.26599,1.039427 0.67266,0.05249 0.31569,-0.766141 2.21714,-1.201667 4.22544,-0.967834 2.69667,0.313981 3.47868,-0.02511 2.99068,-1.296812 -0.77751,-2.026181 -6.20438,-1.522737 -13.38237,1.241466 -2.62344,1.010273 -5.38223,1.458418 -6.13064,0.995877 -0.81366,-0.502874 -1.00215,-0.260785 -0.46882,0.602153 0.49055,0.793724 2.96808,1.434522 5.50563,1.423994 3.00253,-0.0125 4.03117,-0.388417 2.94557,-1.076577 z M 290,17.008736 c 0,-0.270195 -0.87296,-0.826252 -1.93993,-1.235682 -1.1124,-0.42687 -1.61415,-0.217311 -1.17622,0.491263 C 287.61793,17.452072 290,18.021127 290,17.008736 Z M 302.5,745 c 0,-2.33334 0.33334,-2.66666 1.5,-1.5 1.16666,1.16666 1.16666,1.83334 0,3 -1.16666,1.16666 -1.5,0.83334 -1.5,-1.5 z M 54.765625,612.89611 c 0.902344,-0.36108 1.980469,-0.31668 2.395834,0.0986 0.415363,0.41536 -0.322918,0.7108 -1.640625,0.65652 -1.456179,-0.06 -1.752375,-0.35617 -0.755209,-0.7552 z M 523.75,600 c 0,-0.6875 0.5625,-1.25 1.25,-1.25 0.6875,0 1.25,0.5625 1.25,1.25 0,0.6875 -0.5625,1.25 -1.25,1.25 -0.6875,0 -1.25,-0.5625 -1.25,-1.25 z m 4.59486,-8.00279 c -0.70577,-1.83922 0.10223,-3.24721 1.86348,-3.24721 0.57291,0 1.04166,1.125 1.04166,2.5 0,2.86615 -1.90409,3.35589 -2.90514,0.74721 z M 563.75,591.34615 c 0,-0.63461 -1.73078,-2.88461 -3.84615,-5 -2.58307,-2.58306 -3.22305,-3.84615 -1.94878,-3.84615 1.04357,0 2.22984,0.53794 2.63619,1.19541 0.40634,0.65748 1.56454,0.87854 2.57378,0.49126 1.40427,-0.53887 1.83496,0.35409 1.83496,3.80459 0,2.47982 -0.28125,4.50874 -0.625,4.50874 -0.34375,0 -0.625,-0.51923 -0.625,-1.15385 z m -39.73968,-0.9865 c -2.30596,-0.86083 0.57374,-4.10965 3.64273,-4.10965 1.29083,0 2.34695,-0.84375 2.34695,-1.875 0,-1.03125 -0.5625,-1.875 -1.25,-1.875 -0.6875,0 -1.25,-0.5625 -1.25,-1.25 0,-0.6875 0.70312,-1.10938 1.5625,-0.9375 0.85937,0.17187 1.42187,-0.39063 1.25,-1.25 -0.35449,-1.77241 4.7724,-1.9132 9.6875,-0.26604 2.63616,0.88344 2.35949,1.0106 -1.76868,0.8129 -4.53962,-0.21741 -4.97177,0.0595 -5.97323,3.82814 -0.59377,2.23437 -1.7046,4.0625 -2.46853,4.0625 -0.76392,0 -2.01346,0.77904 -2.77676,1.73121 -0.76329,0.95217 -2.1144,1.45997 -3.00248,1.12844 z M 540,586.38374 c 0,-0.61395 0.8151,-1.42905 1.81134,-1.81134 1.21065,-0.46458 1.58084,-0.0944 1.11626,1.11626 -0.7587,1.97717 -2.9276,2.4921 -2.9276,0.69508 z m -19.06841,-9.05113 C 521.77913,574.0916 525,571.57055 525,574.14818 c 0,1.07484 -0.57168,2.30759 -1.27039,2.73942 -0.69871,0.43182 -1.00471,1.21502 -0.67999,1.74044 0.32473,0.52541 -0.15142,0.9553 -1.05809,0.9553 -0.97224,0 -1.40707,-0.92333 -1.05994,-2.25073 z M 515,577.00874 c 0,-0.9577 0.84375,-2.06504 1.875,-2.46078 1.03125,-0.39572 1.875,-0.17465 1.875,0.49126 0,0.66593 -0.5957,1.21078 -1.32377,1.21078 -0.72808,0 -0.97613,0.5625 -0.55123,1.25 0.4249,0.6875 0.17685,1.25 -0.55123,1.25 C 515.5957,578.75 515,577.96642 515,577.00874 Z m 1.47631,-7.44465 c 0.86618,-0.92724 2.57585,-1.42414 3.79928,-1.1042 3.59441,0.93995 2.5501,2.79011 -1.57488,2.79011 -3.13286,0 -3.52303,-0.29571 -2.2244,-1.68591 z M 550,568.05123 c 0,-1.07183 0.5625,-1.60113 1.25,-1.17623 0.6875,0.4249 1.25,1.30185 1.25,1.94877 0,0.64693 -0.5625,1.17623 -1.25,1.17623 -0.6875,0 -1.25,-0.87695 -1.25,-1.94877 z M 32.697369,178.75 c 0,-1.71875 0.283716,-2.42188 0.630482,-1.5625 0.346765,0.85937 0.346765,2.26562 0,3.125 -0.346766,0.85937 -0.630482,0.15625 -0.630482,-1.5625 z M 28.75,177.42622 c 0,-0.72807 0.5625,-0.97612 1.25,-0.55122 0.6875,0.4249 1.25,1.0206 1.25,1.32377 0,0.30318 -0.5625,0.55123 -1.25,0.55123 -0.6875,0 -1.25,-0.5957 -1.25,-1.32378 z m 451.34071,-43.33337 c -4.41886,-2.51349 -7.33944,-4.80161 -6.49017,-5.0847 0.84926,-0.28309 2.49595,0.30334 3.65928,1.30316 1.16336,0.99983 4.64643,3.30224 7.74018,5.11645 3.09375,1.81423 5.0625,3.2843 4.375,3.26684 -0.6875,-0.0175 -4.86542,-2.08825 -9.28429,-4.60175 z M 102.59868,66.667915 c -0.0543,-0.801398 2.15132,-3.589179 4.90132,-6.195071 2.75,-2.605891 5,-5.405648 5,-6.221679 0,-0.816031 0.88976,-1.825124 1.97723,-2.242429 2.86009,-1.097517 4.27277,-0.935094 4.27277,0.491264 0,0.6875 -0.85168,1.25 -1.89262,1.25 -2.18267,0 -9.26621,7.362268 -9.32074,9.6875 -0.0202,0.859375 -0.83351,1.5625 -1.80747,1.5625 -0.97396,0 -2.05455,0.703125 -2.40132,1.5625 -0.43193,1.070439 -0.66156,1.103636 -0.72917,0.105412 z M 120,51.210769 c 0,-1.427889 1.17191,-1.906178 7.24964,-2.958779 2.55808,-0.443034 3.83564,-0.246739 3.36372,0.516832 C 130.19486,49.44597 128.19815,50 126.17622,50 124.1543,50 122.5,50.5625 122.5,51.25 c 0,0.6875 -0.5625,1.25 -1.25,1.25 -0.6875,0 -1.25,-0.580154 -1.25,-1.289231 z m 8.05101,-5.928444 c 1.35791,-1.35792 9.89023,-3.907168 10.92884,-3.265273 C 139.54092,42.363821 140,42.051845 140,41.323771 140,40.595697 140.5957,40 141.32377,40 c 0.72808,0 0.97613,0.5625 0.55123,1.25 -0.42594,0.689188 0.52239,1.285547 2.11372,1.329233 l 2.88628,0.07924 -2.81389,1.131001 c -1.54765,0.622052 -3.56276,0.843635 -4.47805,0.492408 -0.91527,-0.351227 -4.0522,-0.102038 -6.97094,0.553762 -2.91872,0.655796 -4.97123,0.856805 -4.56111,0.446688 z M 231.875,23.75 c 3.43636,-1.476653 5.40996,-1.476653 3.125,0 -1.03125,0.666445 -2.71875,1.180796 -3.75,1.143002 -1.23633,-0.04531 -1.02342,-0.43465 0.625,-1.143002 z m 10.07205,-2.383426 c -0.38528,-0.623385 0.42527,-0.83903 1.80122,-0.479211 2.91874,0.763266 3.28769,1.612637 0.7005,1.612637 -0.99067,0 -2.11645,-0.510043 -2.50172,-1.133426 z m 5.42839,-5.920018 c 3.75789,-2.632126 15.22881,-7.0089672 16.09615,-6.1416361 0.36425,0.3642451 -1.53348,1.5310561 -4.21716,2.5929131 -2.68369,1.061857 -6.37247,2.756741 -8.19729,3.766408 -4.51373,2.49742 -7.32108,2.331431 -3.6817,-0.217685 z m 21.71085,-7.5627944 c 1.21621,-0.3169292 2.90371,-0.2960864 3.75,0.046318 0.84629,0.3424039 -0.14879,0.6017096 -2.21129,0.576235 -2.0625,-0.025475 -2.75492,-0.3056232 -1.53871,-0.6225525 z"
     id="path3455"
     inkscape:connector-curvature="0" />
</svg>
